<svg xmlns="http://www.w3.org/2000/svg" xmlns:xlink="http://www.w3.org/1999/xlink" version="1.1" width="433.26179pt" height="94.110218pt" viewBox="0 0 433.26179 94.110218">
<defs>
<clipPath id="clip_0">
<path d="M249.219 27.34H254.887V33.008H249.219Z"/>
</clipPath>
<g id="pattern_tile_1">
<clipPath id="clip_2">
<path transform="matrix(.00400879,.00400879,-.00400879,.00400879,13.351757,-184.59136)" d="M0 0H210V100H0Z"/>
</clipPath>
<g clip-path="url(#clip_2)">
<path transform="matrix(.00400879,.00400879,-.00400879,.00400879,13.351757,-184.59136)" d="M0-50H100V150H0Z" fill="#8172b3"/>
</g>
</g>
<pattern id="pattern_1" patternUnits="userSpaceOnUse" patternContentUnits="userSpaceOnUse" x="0" y="0" width="210" height="100">
<g transform="matrix(124.72592,-124.72592,124.72592,124.72592,21358.016,24688.637)">
<use x="0" y="0" xlink:href="#pattern_tile_1"/>
</g>
</pattern>
<clipPath id="clip_3">
<path d="M249.219 35.844H254.887V41.512H249.219Z"/>
</clipPath>
<g id="pattern_tile_4">
<clipPath id="clip_5">
<path transform="matrix(.00400879,.00400879,-.00400879,.00400879,13.351757,-184.59136)" d="M0 0H210V100H0Z"/>
</clipPath>
<g clip-path="url(#clip_5)">
<path transform="matrix(.00400879,.00400879,-.00400879,.00400879,13.351757,-184.59136)" d="M0-50H100V150H0Z" fill="#8172b3"/>
</g>
</g>
<pattern id="pattern_4" patternUnits="userSpaceOnUse" patternContentUnits="userSpaceOnUse" x="0" y="0" width="210" height="100">
<g transform="matrix(124.72592,-124.72592,124.72592,124.72592,21358.016,24688.637)">
<use x="0" y="0" xlink:href="#pattern_tile_4"/>
</g>
</pattern>
<clipPath id="clip_6">
<path d="M249.219 52.852H254.887V58.52H249.219Z"/>
</clipPath>
<g id="pattern_tile_7">
<clipPath id="clip_8">
<path transform="matrix(.00400879,.00400879,-.00400879,.00400879,13.351757,-142.07166)" d="M0 0H210V100H0Z"/>
</clipPath>
<g clip-path="url(#clip_8)">
<path transform="matrix(.00400879,.00400879,-.00400879,.00400879,13.351757,-142.07166)" d="M0-50H100V150H0Z" fill="#c44e52"/>
</g>
</g>
<pattern id="pattern_7" patternUnits="userSpaceOnUse" patternContentUnits="userSpaceOnUse" x="0" y="0" width="210" height="100">
<g transform="matrix(124.72592,-124.72592,124.72592,124.72592,16054.707,19385.329)">
<use x="0" y="0" xlink:href="#pattern_tile_7"/>
</g>
</pattern>
<clipPath id="clip_9">
<path d="M249.219 61.355H254.887V67.023H249.219Z"/>
</clipPath>
<g id="pattern_tile_10">
<clipPath id="clip_11">
<path transform="matrix(.00400879,.00400879,-.00400879,.00400879,13.351757,-142.07166)" d="M0 0H210V100H0Z"/>
</clipPath>
<g clip-path="url(#clip_11)">
<path transform="matrix(.00400879,.00400879,-.00400879,.00400879,13.351757,-142.07166)" d="M0-50H100V150H0Z" fill="#c44e52"/>
</g>
</g>
<pattern id="pattern_10" patternUnits="userSpaceOnUse" patternContentUnits="userSpaceOnUse" x="0" y="0" width="210" height="100">
<g transform="matrix(124.72592,-124.72592,124.72592,124.72592,16054.707,19385.329)">
<use x="0" y="0" xlink:href="#pattern_tile_10"/>
</g>
</pattern>
</defs>
<g>
<path d="M115.262 76.508 132.445 71.426V64.648L115.262 59.563ZM115.262 76.508" fill="#ffffff"/>
<path stroke-width=".566929" stroke-linecap="square" stroke-linejoin="round" fill="none" stroke="#000000" d="M115.262 76.508 132.445 71.426V64.648L115.262 59.563ZM115.262 76.508"/>
<path d="M119.941 70.367C119.391 70.367 118.961 70.23 118.645 69.953 118.328 69.676 118.164 69.277 118.16 68.762 118.16 68.496 118.207 68.219 118.305 67.93 118.402 67.637 118.551 67.352 118.75 67.066 118.949 66.781 119.223 66.547 119.563 66.359 119.906 66.172 120.301 66.051 120.746 66L120.773 65.992C120.793 65.992 120.813 65.992 120.832 65.992 120.844 65.992 120.867 65.992 120.898 65.992 120.934 65.992 120.961 65.996 120.988 66 121.195 66 121.371 66.027 121.52 66.078 121.668 66.129 121.781 66.188 121.859 66.254L121.965 66.34 122.031 66.293C122.078 66.258 122.141 66.23 122.215 66.203 122.293 66.18 122.379 66.164 122.469 66.156 122.617 66.156 122.734 66.199 122.828 66.281 122.918 66.367 122.965 66.48 122.973 66.629 122.973 66.684 122.789 67.441 122.418 68.906 122.051 70.371 121.863 71.125 121.848 71.16 121.699 71.531 121.414 71.813 120.988 72.016 120.563 72.215 120.02 72.316 119.359 72.324 118.746 72.324 118.324 72.262 118.09 72.141 117.859 72.016 117.742 71.828 117.742 71.578 117.742 71.352 117.82 71.164 117.977 71.016 118.129 70.867 118.313 70.789 118.527 70.785 118.668 70.785 118.793 70.828 118.895 70.91 119 70.992 119.055 71.133 119.059 71.328 119.039 71.488 118.969 71.648 118.848 71.813L118.934 71.82H119.516C119.766 71.82 119.996 71.746 120.203 71.598 120.41 71.449 120.555 71.277 120.637 71.086 120.645 71.066 120.668 70.977 120.707 70.824 120.746 70.668 120.785 70.52 120.82 70.379 120.859 70.234 120.879 70.156 120.879 70.145 120.875 70.145 120.828 70.16 120.746 70.195 120.66 70.227 120.543 70.266 120.395 70.309 120.246 70.355 120.098 70.375 119.941 70.367ZM121.684 66.949C121.676 66.945 121.668 66.926 121.656 66.902 121.641 66.875 121.629 66.852 121.617 66.832 121.602 66.813 121.586 66.797 121.566 66.777 121.547 66.758 121.527 66.73 121.5 66.699 121.473 66.664 121.453 66.645 121.434 66.641 121.414 66.633 121.379 66.613 121.336 66.582 121.289 66.551 121.254 66.535 121.23 66.535 121.203 66.535 121.156 66.52 121.094 66.496 121.027 66.469 120.973 66.465 120.93 66.484 120.742 66.484 120.574 66.523 120.426 66.602 120.277 66.68 120.156 66.789 120.066 66.93 119.977 67.074 119.91 67.195 119.863 67.297 119.82 67.402 119.773 67.52 119.727 67.656 119.508 68.508 119.398 69.063 119.398 69.313 119.398 69.52 119.461 69.664 119.582 69.75 119.707 69.832 119.852 69.875 120.02 69.875 120.188 69.875 120.383 69.824 120.609 69.719 120.777 69.621 120.91 69.523 121.008 69.418L121.082 69.34ZM121.684 66.949"/>
<path d="M119.355 64.695 120.68 63.395 120.758 63.473C121.598 64.273 122.016 64.68 122.016 64.695L121.766 64.973C121.754 64.969 121.566 64.809 121.203 64.492L120.691 64.047 120.156 64.5C120.074 64.57 119.988 64.645 119.906 64.723 119.824 64.801 119.754 64.863 119.703 64.906L119.625 64.965C119.613 64.977 119.563 64.934 119.48 64.828ZM119.355 64.695"/>
<path transform="matrix(1,0,0,.993093,0,0)" d="M84.078 77.04 66.891 71.923V65.098L84.078 59.977ZM84.078 77.04" fill="#ffffff"/>
<path transform="matrix(1,0,0,.993093,0,0)" stroke-width=".568897" stroke-linecap="square" stroke-linejoin="round" fill="none" stroke="#000000" d="M84.078 77.04 66.891 71.923V65.098L84.078 59.977ZM84.078 77.04"/>
<path d="M81.473 66.621C81.555 66.652 81.598 66.711 81.598 66.797 81.598 66.906 81.563 67.031 81.492 67.172 81.453 67.207 81.188 67.223 80.703 67.223H80.008V67.242C79.996 67.254 79.953 67.469 79.883 67.879 79.813 68.293 79.727 68.785 79.629 69.352 79.531 69.922 79.445 70.348 79.367 70.629 79.078 71.883 78.543 72.621 77.758 72.848 77.699 72.859 77.609 72.867 77.484 72.867 77.145 72.867 76.883 72.789 76.695 72.633 76.508 72.48 76.41 72.285 76.402 72.055 76.395 71.82 76.473 71.629 76.637 71.48 76.797 71.332 76.984 71.254 77.191 71.238 77.348 71.238 77.473 71.285 77.57 71.375 77.668 71.465 77.723 71.586 77.727 71.734 77.727 71.98 77.617 72.191 77.395 72.371L77.473 72.383H77.582C77.691 72.363 77.797 72.238 77.895 72.004 77.926 71.891 78 71.5 78.117 70.832 78.156 70.633 78.227 70.234 78.332 69.641 78.438 69.047 78.539 68.496 78.633 67.988 78.73 67.477 78.777 67.223 78.77 67.223H77.824C77.695 67.223 77.605 67.211 77.551 67.191 77.5 67.172 77.473 67.125 77.465 67.047 77.492 66.816 77.543 66.68 77.621 66.641 77.648 66.629 77.863 66.621 78.273 66.621H78.879L78.887 66.602C79.004 65.832 79.121 65.332 79.238 65.09 79.355 64.848 79.516 64.645 79.719 64.492 79.918 64.336 80.094 64.238 80.242 64.199 80.395 64.16 80.539 64.141 80.684 64.133 81.109 64.133 81.414 64.215 81.59 64.375 81.766 64.535 81.855 64.727 81.863 64.945 81.863 65.18 81.781 65.371 81.617 65.527 81.457 65.684 81.277 65.758 81.082 65.758 80.926 65.758 80.797 65.715 80.691 65.625 80.59 65.535 80.535 65.41 80.535 65.258 80.535 65.184 80.547 65.117 80.566 65.055 80.586 64.988 80.609 64.93 80.645 64.879 80.676 64.828 80.703 64.785 80.73 64.754 80.758 64.719 80.781 64.691 80.809 64.664L80.848 64.625C80.816 64.625 80.781 64.625 80.742 64.617 80.414 64.617 80.254 64.906 80.254 65.488V65.555L80.242 65.906 80.184 66.234C80.145 66.465 80.125 66.586 80.117 66.594V66.621ZM81.473 66.621"/>
<path d="M79.484 62.836 80.82 61.539 80.898 61.617C81.742 62.414 82.164 62.824 82.164 62.836L81.91 63.117C81.898 63.109 81.711 62.949 81.344 62.633L80.828 62.188 80.293 62.641C80.207 62.711 80.125 62.785 80.039 62.863 79.953 62.941 79.887 63.004 79.832 63.047L79.758 63.105C79.742 63.121 79.695 63.074 79.609 62.973ZM79.484 62.836"/>
<path transform="matrix(1,0,0,.993093,0,0)" d="M84.473 34.449 67.285 29.328V22.503L84.473 17.386ZM84.473 34.449" fill="#ffffff"/>
<path transform="matrix(1,0,0,.993093,0,0)" stroke-width=".568897" stroke-linecap="square" stroke-linejoin="round" fill="none" stroke="#000000" d="M84.473 34.449 67.285 29.328V22.503L84.473 17.386ZM84.473 34.449"/>
<path d="M81.863 24.32C81.949 24.355 81.992 24.41 81.992 24.496 81.992 24.605 81.957 24.73 81.883 24.875 81.844 24.906 81.582 24.922 81.094 24.922H80.402V24.941C80.391 24.953 80.348 25.168 80.273 25.582 80.203 25.992 80.121 26.484 80.023 27.051 79.926 27.621 79.836 28.047 79.758 28.332 79.473 29.582 78.938 30.32 78.148 30.547 78.09 30.563 78 30.566 77.875 30.566 77.539 30.566 77.277 30.488 77.086 30.336 76.898 30.18 76.801 29.984 76.793 29.754 76.789 29.52 76.867 29.332 77.027 29.184 77.191 29.035 77.375 28.953 77.586 28.941 77.738 28.941 77.867 28.984 77.965 29.074 78.063 29.168 78.113 29.285 78.121 29.434 78.121 29.68 78.012 29.891 77.789 30.074L77.867 30.082H77.973C78.086 30.063 78.188 29.938 78.285 29.707 78.32 29.59 78.395 29.199 78.512 28.535 78.551 28.332 78.621 27.938 78.727 27.344 78.828 26.75 78.93 26.195 79.027 25.688 79.125 25.176 79.172 24.922 79.164 24.922H78.219C78.09 24.922 77.996 24.914 77.945 24.895 77.895 24.875 77.863 24.824 77.855 24.746 77.883 24.516 77.934 24.379 78.012 24.34 78.039 24.328 78.258 24.32 78.668 24.32H79.27L79.281 24.301C79.398 23.535 79.516 23.031 79.633 22.793 79.75 22.547 79.906 22.348 80.109 22.191 80.313 22.035 80.488 21.941 80.637 21.902 80.785 21.863 80.934 21.84 81.074 21.832 81.504 21.832 81.805 21.914 81.98 22.074 82.156 22.238 82.25 22.426 82.254 22.648 82.254 22.879 82.172 23.074 82.012 23.227 81.848 23.383 81.668 23.461 81.473 23.461 81.32 23.461 81.188 23.414 81.086 23.324 80.98 23.234 80.93 23.109 80.93 22.957 80.93 22.887 80.938 22.816 80.957 22.754 80.977 22.688 81.004 22.629 81.035 22.578 81.066 22.527 81.098 22.484 81.125 22.453 81.148 22.422 81.176 22.391 81.203 22.367L81.242 22.328C81.207 22.328 81.172 22.324 81.133 22.316 80.809 22.316 80.645 22.609 80.645 23.188V23.258L80.637 23.605 80.578 23.934C80.539 24.168 80.516 24.285 80.508 24.293V24.32ZM81.863 24.32"/>
<path d="M79.875 20.535 81.211 19.238 81.289 19.316C82.133 20.117 82.559 20.523 82.559 20.535L82.305 20.816C82.289 20.809 82.102 20.648 81.738 20.332L81.223 19.887 80.684 20.344C80.602 20.414 80.516 20.488 80.43 20.566 80.348 20.641 80.277 20.703 80.227 20.75L80.148 20.809C80.137 20.82 80.086 20.773 80.004 20.672ZM79.875 20.535"/>
<path d="M19.273 34.211 36.457 29.125V22.348L19.273 17.266ZM19.273 34.211" fill="#ffffff"/>
<path stroke-width=".566929" stroke-linecap="square" stroke-linejoin="round" fill="none" stroke="#000000" d="M19.273 34.211 36.457 29.125V22.348L19.273 17.266ZM19.273 34.211"/>
<path d="M23.957 28.066C23.406 28.066 22.973 27.93 22.66 27.652 22.344 27.375 22.18 26.977 22.176 26.461 22.176 26.195 22.223 25.918 22.32 25.629 22.418 25.336 22.566 25.051 22.766 24.766 22.965 24.48 23.234 24.246 23.578 24.059 23.922 23.871 24.313 23.754 24.758 23.703L24.789 23.691C24.809 23.691 24.828 23.691 24.848 23.691 24.859 23.691 24.883 23.691 24.914 23.691 24.945 23.691 24.977 23.695 25 23.703 25.207 23.703 25.387 23.727 25.535 23.777 25.684 23.832 25.797 23.887 25.871 23.953L25.98 24.039 26.047 23.992C26.094 23.961 26.152 23.93 26.23 23.906 26.309 23.879 26.391 23.863 26.484 23.855 26.633 23.855 26.75 23.898 26.84 23.98 26.93 24.066 26.98 24.184 26.988 24.332 26.988 24.383 26.801 25.141 26.434 26.605 26.066 28.07 25.875 28.824 25.863 28.863 25.715 29.23 25.426 29.516 25 29.715 24.574 29.914 24.031 30.02 23.375 30.023 22.762 30.023 22.34 29.961 22.105 29.84 21.875 29.719 21.758 29.531 21.758 29.277 21.758 29.051 21.836 28.867 21.988 28.719 22.145 28.57 22.328 28.492 22.543 28.484 22.684 28.484 22.809 28.527 22.91 28.609 23.012 28.695 23.066 28.832 23.074 29.027 23.055 29.188 22.984 29.348 22.863 29.512L22.949 29.52H23.531C23.781 29.52 24.012 29.445 24.219 29.297 24.422 29.148 24.57 28.977 24.652 28.785 24.66 28.766 24.684 28.68 24.719 28.523 24.758 28.367 24.797 28.219 24.836 28.078 24.875 27.938 24.895 27.859 24.895 27.844 24.887 27.844 24.844 27.863 24.758 27.895 24.676 27.926 24.559 27.965 24.41 28.012 24.262 28.055 24.109 28.074 23.957 28.066ZM25.699 24.648C25.691 24.645 25.684 24.629 25.668 24.602 25.656 24.574 25.645 24.555 25.633 24.535 25.617 24.516 25.602 24.496 25.582 24.477 25.563 24.457 25.539 24.43 25.516 24.398 25.488 24.367 25.465 24.348 25.445 24.34 25.426 24.332 25.395 24.316 25.352 24.281 25.305 24.25 25.27 24.234 25.242 24.234 25.219 24.234 25.172 24.223 25.109 24.195 25.043 24.168 24.988 24.164 24.945 24.184 24.758 24.184 24.59 24.223 24.441 24.301 24.293 24.379 24.172 24.488 24.082 24.629 23.992 24.773 23.922 24.895 23.879 25 23.832 25.102 23.789 25.223 23.742 25.355 23.523 26.211 23.414 26.762 23.414 27.012 23.414 27.219 23.477 27.363 23.598 27.449 23.719 27.531 23.867 27.574 24.031 27.574 24.199 27.574 24.398 27.523 24.625 27.418 24.793 27.324 24.926 27.223 25.02 27.121L25.098 27.043ZM25.699 24.648"/>
<path d="M23.367 22.395 24.695 21.098 24.773 21.176C25.613 21.973 26.031 22.383 26.031 22.395L25.781 22.676C25.766 22.668 25.578 22.508 25.219 22.191L24.707 21.746 24.172 22.199C24.09 22.27 24.004 22.344 23.922 22.422 23.836 22.5 23.77 22.563 23.719 22.605L23.641 22.664C23.629 22.68 23.578 22.633 23.496 22.531ZM23.367 22.395"/>
<path stroke-width=".566929" stroke-linecap="butt" stroke-linejoin="round" fill="none" stroke="#000000" d="M36.438 25.738H63.438"/>
<path d="M62.645 24.148 67.008 25.738 62.645 27.324C63.438 26.398 63.438 25.078 62.645 24.148ZM62.645 24.148" fill-rule="evenodd"/>
<path stroke-width=".566929" stroke-linecap="butt" stroke-dasharray=".850394,.850394" stroke-linejoin="round" fill="none" stroke="#000000" d="M84.078 68.066H111.082"/>
<path d="M110.289 66.48 114.652 68.066 110.289 69.656C111.082 68.73 111.082 67.41 110.289 66.48ZM110.289 66.48" fill-rule="evenodd"/>
<path stroke-width=".566932" stroke-linecap="butt" stroke-linejoin="round" fill="none" stroke="#000000" d="M84.473 25.738H92.148"/>
<path d="M91.355 24.148 95.723 25.738 91.355 27.324C92.148 26.398 92.148 25.078 91.355 24.148ZM91.355 24.148" fill-rule="evenodd"/>
<path stroke-width=".566932" stroke-linecap="butt" stroke-linejoin="round" fill="none" stroke="#000000" d="M132.445 68.035H140.121"/>
<path d="M139.328 66.449 143.691 68.035 139.328 69.625C140.121 68.699 140.121 67.379 139.328 66.449ZM139.328 66.449" fill-rule="evenodd"/>
<path stroke-width=".566932" stroke-linecap="butt" stroke-linejoin="round" fill="none" stroke="#000000" d="M7.938 25.77H15.395"/>
<path d="M14.598 24.18 18.965 25.77 14.598 27.355C15.395 26.43 15.395 25.109 14.598 24.18ZM14.598 24.18" fill-rule="evenodd"/>
<path stroke-width=".566932" stroke-linecap="butt" stroke-linejoin="round" fill="none" stroke="#000000" d="M55.965 68.066H63.266"/>
<path d="M62.473 66.48 66.836 68.066 62.473 69.656C63.266 68.73 63.266 67.41 62.473 66.48ZM62.473 66.48" fill-rule="evenodd"/>
<path stroke-width=".566935" stroke-linecap="butt" stroke-dasharray=".850394,.850394" stroke-linejoin="round" fill="none" stroke="#000000" d="M51.723 29.594V59.039"/>
<path d="M53.309 58.242 51.723 62.609 50.137 58.242C51.059 59.039 52.383 59.039 53.309 58.242ZM53.309 58.242" fill-rule="evenodd"/>
<path d="M.301 25.188H.195C.066 25.188 0 25.141 0 25.051 0 25.039 .008 25.004 .02 24.945 .031 24.887 .066 24.805 .125 24.703 .184 24.598 .25 24.492 .32 24.383 .391 24.273 .5 24.156 .648 24.035 .797 23.91 .957 23.809 1.125 23.723 1.387 23.609 1.625 23.551 1.84 23.551H1.867C2.109 23.551 2.258 23.555 2.313 23.559 2.805 23.645 3.129 23.805 3.281 24.043L3.379 23.945C3.652 23.676 3.945 23.539 4.262 23.539 4.617 23.539 4.891 23.641 5.082 23.84 5.277 24.039 5.379 24.281 5.383 24.566 5.383 24.844 5.301 25.059 5.133 25.207 4.965 25.355 4.785 25.434 4.59 25.438 4.441 25.438 4.316 25.395 4.211 25.305 4.109 25.211 4.059 25.09 4.059 24.934 4.059 24.707 4.141 24.52 4.309 24.363 4.395 24.301 4.496 24.242 4.617 24.188 4.617 24.184 4.605 24.168 4.578 24.152 4.555 24.133 4.508 24.109 4.445 24.082 4.379 24.059 4.309 24.043 4.23 24.043 4.152 24.043 4.098 24.051 4.059 24.063 3.844 24.16 3.691 24.344 3.602 24.617 3.207 26.066 3.012 26.91 3.012 27.141 3.012 27.375 3.176 27.492 3.504 27.492 3.789 27.492 4.047 27.395 4.281 27.199 4.512 27.008 4.672 26.789 4.766 26.543 4.789 26.453 4.813 26.398 4.832 26.379 4.852 26.359 4.914 26.348 5.023 26.348H5.191C5.32 26.348 5.383 26.395 5.383 26.484 5.383 26.566 5.34 26.688 5.258 26.844 5.176 26.996 5.059 27.16 4.91 27.336 4.762 27.512 4.551 27.664 4.281 27.801 4.008 27.938 3.727 28 3.426 27.996 2.887 27.996 2.461 27.855 2.16 27.578L2.082 27.492C1.805 27.82 1.492 27.984 1.141 27.984H1.094C.727 27.984 .453 27.883 .27 27.676 .09 27.469 0 27.242 0 26.996 0 26.688 .086 26.461 .262 26.32 .438 26.176 .613 26.102 .793 26.098 .941 26.098 1.066 26.141 1.172 26.23 1.273 26.324 1.328 26.445 1.328 26.602 1.328 26.828 1.242 27.016 1.074 27.172 .992 27.234 .887 27.293 .766 27.348 .777 27.379 .824 27.41 .902 27.441 .977 27.477 1.059 27.496 1.141 27.5 1.285 27.5 1.41 27.441 1.52 27.328 1.629 27.211 1.715 27.074 1.773 26.918 2.164 25.469 2.363 24.625 2.363 24.395 2.363 24.16 2.199 24.043 1.867 24.043 1.637 24.043 1.402 24.117 1.172 24.266 .938 24.414 .754 24.656 .621 24.992 .594 25.082 .57 25.137 .551 25.156 .531 25.176 .469 25.188 .359 25.188ZM.301 25.188"/>
<path d="M55.551 25.77C55.551 27.883 53.836 29.594 51.723 29.594 49.609 29.594 47.895 27.883 47.895 25.77 47.895 23.656 49.609 21.941 51.723 21.941 53.836 21.941 55.551 23.656 55.551 25.77ZM55.551 25.77" fill="#ffffff"/>
<path d="M49.59 27.996H49.531C49.363 27.996 49.277 27.953 49.277 27.871 49.277 27.844 49.305 27.789 49.355 27.703 49.406 27.621 49.496 27.5 49.625 27.348 49.758 27.191 49.902 27.027 50.063 26.852 50.367 26.555 50.816 26.172 51.418 25.699 52.02 25.23 52.426 24.898 52.637 24.703L52.715 24.637H52.637C52.426 24.68 52.156 24.711 51.836 24.73 51.512 24.75 51.234 24.766 51 24.77 50.77 24.777 50.641 24.789 50.613 24.809 50.59 24.828 50.52 24.84 50.41 24.84H50.363C50.168 24.84 50.07 24.793 50.07 24.703 50.07 24.691 50.078 24.656 50.09 24.605 50.156 24.398 50.273 24.207 50.441 24.023 50.77 23.703 51.129 23.539 51.516 23.539 51.766 23.539 52.047 23.637 52.355 23.832 52.668 24.023 52.906 24.121 53.074 24.121 53.172 24.121 53.285 24.027 53.422 23.84 53.559 23.652 53.633 23.559 53.645 23.551 53.656 23.543 53.73 23.539 53.867 23.539H53.965C54.102 23.539 54.168 23.586 54.168 23.676 54.168 23.723 54.094 23.84 53.945 24.035 53.797 24.227 53.609 24.445 53.383 24.684 53.086 24.973 52.617 25.375 51.969 25.883 51.434 26.297 51.043 26.617 50.797 26.844L50.723 26.922H50.836C50.891 26.922 50.945 26.918 51.012 26.91 51.074 26.902 51.164 26.895 51.273 26.883 51.383 26.867 51.473 26.859 51.543 26.852 51.758 26.828 51.98 26.809 52.211 26.793 52.445 26.781 52.617 26.773 52.734 26.766 52.852 26.758 52.969 26.746 53.094 26.727 53.215 26.707 53.305 26.672 53.355 26.621 53.406 26.57 53.453 26.496 53.492 26.398 53.516 26.34 53.602 26.309 53.742 26.309 53.91 26.309 54.008 26.328 54.031 26.359 54.078 26.391 54.086 26.457 54.063 26.551 53.945 26.941 53.715 27.273 53.363 27.559 53.016 27.844 52.633 27.984 52.211 27.984 51.953 27.984 51.676 27.891 51.379 27.703 51.082 27.516 50.844 27.422 50.664 27.414 50.516 27.414 50.375 27.461 50.246 27.551 50.117 27.641 50.008 27.738 49.918 27.84L49.801 27.984C49.789 27.992 49.719 27.996 49.59 27.996ZM49.59 27.996"/>
<path d="M50.918 22.242 52.246 20.945 52.324 21.023C53.16 21.824 53.582 22.23 53.582 22.242L53.328 22.523C53.316 22.52 53.129 22.355 52.77 22.039L52.254 21.594 51.723 22.051C51.637 22.121 51.555 22.195 51.469 22.273 51.387 22.352 51.32 22.41 51.266 22.457L51.191 22.516C51.176 22.527 51.129 22.48 51.043 22.379ZM50.918 22.242"/>
<path d="M98.672 25.188H98.563C98.434 25.188 98.371 25.141 98.371 25.051 98.371 25.039 98.375 25.004 98.391 24.945 98.402 24.887 98.438 24.805 98.496 24.703 98.555 24.598 98.617 24.492 98.691 24.383 98.762 24.273 98.871 24.156 99.02 24.035 99.168 23.91 99.324 23.809 99.492 23.723 99.758 23.609 99.996 23.551 100.211 23.551H100.238C100.477 23.551 100.625 23.555 100.684 23.559 101.176 23.645 101.496 23.805 101.652 24.043L101.75 23.945C102.02 23.676 102.313 23.539 102.629 23.539 102.984 23.539 103.262 23.641 103.453 23.84 103.648 24.039 103.746 24.281 103.754 24.566 103.754 24.844 103.672 25.059 103.504 25.207 103.336 25.355 103.152 25.434 102.961 25.438 102.813 25.438 102.684 25.395 102.582 25.305 102.48 25.211 102.426 25.09 102.426 24.934 102.426 24.707 102.512 24.52 102.68 24.363 102.762 24.301 102.867 24.242 102.988 24.188 102.988 24.184 102.977 24.168 102.949 24.152 102.926 24.133 102.879 24.109 102.816 24.082 102.75 24.059 102.68 24.043 102.602 24.043 102.523 24.043 102.465 24.051 102.426 24.063 102.215 24.16 102.063 24.344 101.973 24.617 101.578 26.066 101.383 26.91 101.383 27.141 101.383 27.375 101.547 27.492 101.875 27.492 102.16 27.492 102.418 27.395 102.648 27.199 102.883 27.008 103.043 26.789 103.133 26.543 103.16 26.453 103.184 26.398 103.203 26.379 103.223 26.359 103.285 26.348 103.395 26.348H103.559C103.688 26.348 103.754 26.395 103.754 26.484 103.754 26.566 103.711 26.688 103.629 26.844 103.543 26.996 103.43 27.16 103.281 27.336 103.133 27.512 102.922 27.664 102.648 27.801 102.379 27.938 102.094 28 101.797 27.996 101.254 27.996 100.832 27.855 100.531 27.578L100.453 27.492C100.176 27.82 99.863 27.984 99.512 27.984H99.465C99.098 27.984 98.82 27.883 98.641 27.676 98.461 27.469 98.371 27.242 98.371 26.996 98.371 26.688 98.457 26.461 98.633 26.32 98.805 26.176 98.984 26.102 99.164 26.098 99.313 26.098 99.438 26.141 99.543 26.23 99.645 26.324 99.695 26.445 99.695 26.602 99.695 26.828 99.613 27.016 99.445 27.172 99.359 27.234 99.258 27.293 99.137 27.348 99.148 27.379 99.191 27.41 99.27 27.441 99.348 27.477 99.43 27.496 99.512 27.5 99.656 27.5 99.781 27.441 99.891 27.328 100 27.211 100.086 27.074 100.141 26.918 100.535 25.469 100.734 24.625 100.734 24.395 100.734 24.16 100.566 24.043 100.238 24.043 100.008 24.043 99.773 24.117 99.543 24.266 99.309 24.414 99.125 24.656 98.988 24.992 98.965 25.082 98.941 25.137 98.922 25.156 98.902 25.176 98.84 25.188 98.727 25.188ZM98.672 25.188"/>
<path d="M100.117 22.242 101.445 20.945 101.52 21.023C102.359 21.824 102.781 22.23 102.781 22.242L102.527 22.523C102.516 22.516 102.328 22.355 101.965 22.039L101.453 21.594 100.922 22.051C100.836 22.121 100.754 22.195 100.668 22.273 100.586 22.348 100.516 22.41 100.465 22.457L100.387 22.516C100.375 22.527 100.328 22.48 100.242 22.379ZM100.117 22.242"/>
<path d="M49.254 70.293H49.195C49.027 70.293 48.945 70.254 48.945 70.168 48.945 70.145 48.973 70.086 49.023 70.004 49.074 69.918 49.164 69.801 49.293 69.645 49.418 69.488 49.563 69.324 49.723 69.148 50.023 68.852 50.473 68.465 51.07 67.992 51.664 67.52 52.07 67.188 52.281 66.992L52.355 66.922H52.281C52.07 66.969 51.805 67 51.484 67.02 51.164 67.039 50.887 67.055 50.656 67.059 50.426 67.066 50.297 67.078 50.273 67.098 50.246 67.117 50.18 67.129 50.07 67.129H50.023C49.828 67.129 49.734 67.082 49.734 66.992 49.734 66.98 49.738 66.945 49.754 66.895 49.816 66.688 49.934 66.492 50.098 66.313 50.426 65.988 50.781 65.824 51.164 65.824 51.414 65.824 51.695 65.922 52 66.117 52.309 66.313 52.547 66.41 52.711 66.41 52.809 66.41 52.926 66.316 53.059 66.129 53.191 65.938 53.266 65.844 53.281 65.836 53.293 65.828 53.367 65.824 53.5 65.824H53.598C53.73 65.824 53.797 65.871 53.797 65.961 53.797 66.008 53.727 66.129 53.578 66.32 53.43 66.516 53.246 66.734 53.02 66.973 52.727 67.262 52.258 67.664 51.617 68.176 51.086 68.59 50.699 68.91 50.453 69.141L50.379 69.215H50.492C50.543 69.215 50.602 69.215 50.664 69.207 50.73 69.199 50.816 69.191 50.926 69.176 51.035 69.164 51.125 69.156 51.195 69.148 51.406 69.121 51.625 69.102 51.855 69.09 52.09 69.078 52.262 69.066 52.375 69.063 52.492 69.055 52.609 69.043 52.73 69.023 52.855 69.004 52.941 68.969 52.992 68.914 53.043 68.863 53.086 68.789 53.125 68.691 53.152 68.633 53.234 68.605 53.375 68.605 53.543 68.605 53.637 68.621 53.664 68.652 53.707 68.684 53.719 68.75 53.691 68.848 53.578 69.234 53.348 69.574 53 69.859 52.656 70.145 52.273 70.285 51.855 70.285 51.602 70.285 51.324 70.191 51.031 70.004 50.734 69.816 50.5 69.719 50.32 69.711 50.172 69.711 50.035 69.758 49.906 69.848 49.777 69.938 49.668 70.035 49.578 70.141L49.465 70.285C49.453 70.293 49.383 70.293 49.254 70.293ZM49.254 70.293"/>
<path d="M54.805 65.91C54.777 65.91 54.719 65.895 54.621 65.867 54.527 65.84 54.477 65.813 54.473 65.785 54.473 65.754 54.598 65.223 54.848 64.191 55.098 63.16 55.234 62.625 55.262 62.578 55.328 62.43 55.445 62.359 55.613 62.359 55.707 62.359 55.801 62.391 55.898 62.461 56 62.531 56.051 62.629 56.051 62.762 56.051 62.785 56.047 62.82 56.035 62.867 56.031 62.898 55.836 63.41 55.445 64.398 55.055 65.387 54.855 65.887 54.84 65.895 54.828 65.906 54.816 65.91 54.805 65.91ZM54.805 65.91"/>
<path d="M102.141 68.059C102.141 65.789 100.301 63.949 98.027 63.949 95.758 63.949 93.918 65.789 93.918 68.059 93.918 70.332 95.758 72.172 98.027 72.172 100.301 72.172 102.141 70.332 102.141 68.059ZM102.141 68.059" fill="#ffffff"/>
<path d="M95.656 67.477H95.551C95.422 67.477 95.359 67.43 95.359 67.34 95.359 67.328 95.363 67.293 95.375 67.234 95.391 67.176 95.426 67.094 95.484 66.992 95.539 66.887 95.605 66.781 95.676 66.672 95.746 66.559 95.855 66.445 96 66.32 96.148 66.199 96.305 66.094 96.473 66.012 96.734 65.895 96.973 65.836 97.184 65.836H97.211C97.449 65.836 97.598 65.84 97.656 65.844 98.141 65.93 98.461 66.09 98.617 66.332L98.711 66.234C98.98 65.961 99.273 65.824 99.586 65.824 99.938 65.824 100.211 65.926 100.402 66.125 100.594 66.328 100.695 66.57 100.699 66.855 100.699 67.133 100.617 67.348 100.449 67.496 100.285 67.645 100.105 67.723 99.914 67.73 99.766 67.73 99.641 67.684 99.539 67.594 99.434 67.504 99.383 67.379 99.383 67.223 99.383 66.996 99.469 66.805 99.633 66.652 99.719 66.586 99.82 66.527 99.941 66.477 99.941 66.469 99.93 66.457 99.902 66.438 99.879 66.418 99.832 66.395 99.77 66.371 99.703 66.344 99.633 66.332 99.559 66.332 99.48 66.332 99.422 66.336 99.383 66.352 99.172 66.445 99.023 66.633 98.934 66.902 98.543 68.359 98.348 69.207 98.348 69.438 98.348 69.672 98.508 69.789 98.836 69.789 99.117 69.789 99.375 69.691 99.605 69.496 99.836 69.305 99.996 69.082 100.086 68.836 100.109 68.746 100.133 68.691 100.152 68.672 100.172 68.652 100.234 68.645 100.344 68.645H100.508C100.637 68.645 100.699 68.688 100.699 68.777 100.699 68.863 100.66 68.984 100.574 69.137 100.492 69.293 100.379 69.457 100.23 69.633 100.082 69.809 99.875 69.965 99.605 70.102 99.336 70.234 99.055 70.301 98.758 70.293 98.223 70.293 97.801 70.156 97.5 69.875L97.422 69.789C97.148 70.121 96.836 70.285 96.492 70.285H96.445C96.078 70.285 95.805 70.18 95.625 69.973 95.449 69.766 95.359 69.539 95.359 69.293 95.359 68.984 95.445 68.758 95.617 68.613 95.789 68.473 95.965 68.398 96.145 68.391 96.293 68.391 96.418 68.434 96.52 68.527 96.621 68.617 96.676 68.738 96.676 68.895 96.676 69.121 96.59 69.313 96.426 69.469 96.34 69.535 96.238 69.59 96.117 69.645 96.129 69.676 96.176 69.707 96.25 69.742 96.328 69.773 96.41 69.793 96.492 69.801 96.633 69.801 96.758 69.742 96.867 69.625 96.977 69.508 97.059 69.371 97.117 69.215 97.508 67.758 97.703 66.914 97.703 66.68 97.703 66.445 97.539 66.332 97.211 66.332 96.98 66.332 96.75 66.406 96.52 66.555 96.289 66.703 96.105 66.945 95.973 67.281 95.945 67.375 95.926 67.43 95.906 67.449 95.887 67.469 95.82 67.477 95.715 67.477ZM95.656 67.477"/>
<path d="M102.133 65.91C102.105 65.91 102.043 65.895 101.949 65.867 101.852 65.84 101.805 65.813 101.797 65.785 101.797 65.754 101.922 65.223 102.172 64.191 102.422 63.16 102.559 62.625 102.586 62.578 102.652 62.43 102.773 62.359 102.941 62.359 103.031 62.359 103.125 62.391 103.227 62.461 103.324 62.531 103.375 62.629 103.375 62.762 103.375 62.785 103.371 62.82 103.359 62.867 103.355 62.898 103.16 63.41 102.77 64.398 102.379 65.387 102.18 65.887 102.164 65.895 102.152 65.906 102.141 65.91 102.133 65.91ZM102.133 65.91"/>
<path d="M145.543 70.309H145.484C145.316 70.309 145.234 70.266 145.234 70.184 145.234 70.156 145.258 70.102 145.313 70.016 145.363 69.934 145.453 69.813 145.578 69.656 145.707 69.5 145.852 69.336 146.012 69.16 146.313 68.863 146.762 68.477 147.359 68.004 147.953 67.531 148.355 67.199 148.57 67.004L148.645 66.938H148.57C148.355 66.98 148.09 67.016 147.77 67.035 147.449 67.055 147.176 67.066 146.945 67.074 146.715 67.078 146.586 67.094 146.559 67.113 146.535 67.133 146.469 67.141 146.359 67.141H146.309C146.117 67.141 146.023 67.094 146.023 67.004 146.023 66.992 146.027 66.961 146.043 66.906 146.105 66.699 146.219 66.508 146.387 66.324 146.715 66 147.07 65.84 147.453 65.84 147.703 65.84 147.98 65.938 148.289 66.129 148.598 66.324 148.836 66.422 149 66.422 149.098 66.422 149.211 66.328 149.348 66.141 149.48 65.953 149.555 65.855 149.566 65.848 149.582 65.844 149.656 65.84 149.789 65.84H149.887C150.02 65.84 150.086 65.883 150.086 65.977 150.086 66.02 150.012 66.141 149.867 66.336 149.719 66.527 149.531 66.746 149.309 66.984 149.016 67.277 148.547 67.68 147.906 68.191 147.375 68.605 146.984 68.926 146.742 69.152L146.664 69.23H146.781C146.832 69.23 146.891 69.227 146.953 69.219 147.02 69.215 147.105 69.203 147.215 69.191 147.324 69.18 147.41 69.168 147.484 69.16 147.695 69.137 147.914 69.117 148.145 69.102 148.375 69.09 148.551 69.082 148.664 69.074 148.781 69.066 148.898 69.055 149.02 69.035 149.141 69.016 149.227 68.98 149.281 68.93 149.332 68.875 149.375 68.801 149.414 68.707 149.441 68.648 149.523 68.617 149.664 68.617 149.832 68.617 149.926 68.633 149.953 68.668 149.996 68.699 150.008 68.762 149.98 68.859 149.867 69.25 149.637 69.586 149.289 69.871 148.941 70.156 148.563 70.297 148.145 70.297 147.891 70.297 147.613 70.203 147.32 70.016 147.023 69.828 146.789 69.73 146.609 69.727 146.461 69.727 146.324 69.77 146.195 69.859 146.066 69.953 145.957 70.051 145.867 70.152L145.754 70.297C145.738 70.305 145.668 70.309 145.543 70.309ZM145.543 70.309"/>
<path d="M151.094 65.922C151.066 65.922 151.008 65.91 150.91 65.883 150.816 65.855 150.766 65.828 150.762 65.801 150.762 65.766 150.887 65.234 151.137 64.207 151.383 63.176 151.523 62.637 151.551 62.59 151.617 62.445 151.734 62.371 151.902 62.371 151.992 62.371 152.09 62.406 152.188 62.473 152.289 62.543 152.336 62.645 152.336 62.777 152.336 62.801 152.332 62.836 152.324 62.879 152.32 62.91 152.121 63.422 151.734 64.41 151.344 65.402 151.141 65.898 151.129 65.91 151.113 65.918 151.102 65.922 151.094 65.922ZM151.094 65.922"/>
<path d="M146.867 64.543 148.191 63.246 148.27 63.324C149.109 64.125 149.527 64.531 149.527 64.543L149.277 64.824C149.262 64.816 149.078 64.656 148.715 64.34L148.203 63.895 147.668 64.348C147.586 64.422 147.5 64.496 147.418 64.57 147.332 64.648 147.266 64.711 147.215 64.758L147.137 64.813C147.125 64.828 147.074 64.781 146.992 64.68ZM146.867 64.543"/>
<path transform="matrix(.86148,0,0,-1,0,0)" stroke-width=".610808" stroke-linecap="butt" stroke-linejoin="round" fill="none" stroke="#7f7f7f" d="M59.291-73.695V-80.379C59.291-84.527 62.656-87.891 66.805-87.891H99.039"/>
<path d="M84.582 89.598 88.637 87.891 84.582 86.18C85.32 87.176 85.32 88.598 84.582 89.598ZM84.582 89.598" fill="#7f7f7f" fill-rule="evenodd"/>
<path transform="matrix(-.833962,0,0,-1,0,0)" stroke-width=".620806" stroke-linecap="butt" stroke-linejoin="round" fill="none" stroke="#7f7f7f" d="M-177.176-73.738V-80.43C-177.176-84.582-173.808-87.949-169.658-87.949H-137.381"/>
<path d="M115.297 89.688 111.309 87.949 115.297 86.211C114.57 87.223 114.57 88.672 115.297 89.688ZM115.297 89.688" fill="#7f7f7f" fill-rule="evenodd"/>
<path d="M89.949 91.23C89.949 91.23 89.898 91.23 89.805 91.23 89.707 91.23 89.656 91.191 89.656 91.121 89.656 91.059 89.734 90.945 89.891 90.785 90.043 90.621 90.133 90.523 90.152 90.484 90.344 90.219 90.523 89.84 90.684 89.352 90.844 88.859 90.98 88.383 91.09 87.918 91.199 87.453 91.375 86.957 91.613 86.438 91.852 85.914 92.141 85.473 92.477 85.117 92.738 84.859 93.051 84.641 93.406 84.461 93.762 84.281 94.121 84.191 94.488 84.191 94.672 84.191 94.82 84.219 94.945 84.277 95.066 84.336 95.152 84.414 95.195 84.52 95.242 84.621 95.277 84.707 95.301 84.77 95.328 84.836 95.34 84.906 95.332 84.984V85.102C95.332 85.285 95.32 85.414 95.301 85.488 95.285 85.559 95.227 85.633 95.137 85.711 95.027 85.82 94.898 85.91 94.75 85.98 94.602 86.051 94.473 86.086 94.363 86.086 94.266 86.086 94.219 86.051 94.219 85.98 94.219 85.961 94.223 85.91 94.238 85.824 94.25 85.742 94.258 85.664 94.258 85.594 94.258 85.398 94.215 85.238 94.133 85.109 94.047 84.98 93.91 84.914 93.723 84.914 93.535 84.914 93.402 84.957 93.316 85.043 93.039 85.293 92.793 85.695 92.57 86.25 92.352 86.809 92.152 87.422 91.973 88.102 91.789 88.777 91.668 89.203 91.605 89.371 91.461 89.672 91.367 89.859 91.324 89.93L91.266 90.02 91.516 90.027C91.883 90.027 92.352 90.102 92.922 90.25 93.488 90.398 93.941 90.488 94.277 90.512H94.41C94.488 90.434 94.559 90.32 94.613 90.172 94.672 90.023 94.785 89.895 94.953 89.777 95.191 89.621 95.395 89.543 95.555 89.543 95.652 89.543 95.699 89.578 95.699 89.641 95.699 89.906 95.48 90.234 95.043 90.629 94.602 91.023 94.102 91.223 93.539 91.23 93.203 91.23 92.738 91.156 92.145 91.008 91.551 90.859 91.121 90.77 90.859 90.746L90.715 90.734 90.617 90.82C90.488 90.953 90.344 91.051 90.191 91.121ZM89.949 91.23" fill="#7f7f7f"/>
<path d="M98.883 90.379C98.883 90.379 98.832 90.379 98.738 90.379 98.641 90.379 98.559 90.348 98.492 90.277 98.422 90.211 98.387 90.121 98.383 90.016 98.383 89.914 98.414 89.824 98.484 89.758 98.508 89.734 98.52 89.723 98.52 89.715 98.52 89.711 98.496 89.707 98.449 89.703 98.332 89.684 98.219 89.676 98.113 89.676 97.891 89.676 97.707 89.75 97.566 89.895 97.352 90.109 97.246 90.469 97.246 90.969 97.246 91.344 97.316 91.637 97.457 91.852 97.645 92.129 97.895 92.27 98.211 92.27 98.398 92.27 98.547 92.211 98.664 92.09 98.777 91.973 98.859 91.832 98.91 91.668 98.918 91.629 98.93 91.609 98.941 91.598 98.957 91.59 98.992 91.586 99.051 91.586H99.148C99.176 91.613 99.188 91.633 99.188 91.648 99.188 91.664 99.18 91.703 99.16 91.758 99.145 91.813 99.105 91.887 99.051 91.98 98.996 92.078 98.93 92.164 98.855 92.242 98.777 92.32 98.668 92.391 98.523 92.453 98.383 92.52 98.227 92.547 98.055 92.543 97.66 92.543 97.316 92.398 97.027 92.105 96.734 91.813 96.586 91.445 96.582 91.004 96.582 90.527 96.73 90.145 97.027 89.848 97.324 89.551 97.668 89.402 98.059 89.402 98.453 89.402 98.727 89.465 98.883 89.586 99.035 89.711 99.113 89.855 99.113 90.023 99.113 90.129 99.074 90.215 98.996 90.277ZM98.883 90.379" fill="#7f7f7f"/>
<path d="M99.578 91.004C99.578 90.57 99.727 90.195 100.023 89.879 100.32 89.566 100.68 89.406 101.098 89.402 101.512 89.402 101.863 89.555 102.16 89.867 102.457 90.176 102.609 90.555 102.613 90.996 102.613 91.43 102.465 91.797 102.176 92.09 101.883 92.387 101.523 92.535 101.098 92.535 100.656 92.535 100.293 92.383 100.012 92.078 99.727 91.773 99.586 91.414 99.578 91.004ZM101.098 92.262C101.656 92.262 101.934 91.891 101.934 91.148V90.758C101.934 90.656 101.934 90.57 101.926 90.496 101.922 90.422 101.906 90.336 101.879 90.238 101.852 90.137 101.816 90.055 101.77 89.988 101.723 89.926 101.652 89.863 101.559 89.797 101.461 89.734 101.352 89.688 101.223 89.66 101.199 89.656 101.164 89.656 101.113 89.656 100.977 89.656 100.848 89.684 100.723 89.738 100.527 89.836 100.398 89.977 100.34 90.156 100.281 90.332 100.25 90.543 100.25 90.785V90.922C100.25 91.359 100.293 91.668 100.379 91.844 100.527 92.125 100.766 92.262 101.098 92.262ZM101.098 92.262" fill="#7f7f7f"/>
<path d="M103.09 92.152H103.188C103.363 92.152 103.473 92.121 103.508 92.059V92.004C103.508 91.961 103.508 91.91 103.508 91.844 103.508 91.781 103.508 91.711 103.508 91.633 103.508 91.555 103.512 91.465 103.516 91.367 103.52 91.266 103.52 91.168 103.516 91.078 103.516 90.938 103.516 90.785 103.516 90.625 103.516 90.469 103.512 90.332 103.508 90.223V90.066C103.496 89.98 103.465 89.922 103.414 89.895 103.363 89.867 103.262 89.848 103.105 89.832H102.98V89.676C102.98 89.57 102.988 89.52 102.996 89.52L103.063 89.512C103.109 89.508 103.172 89.5 103.254 89.496 103.336 89.492 103.422 89.488 103.508 89.484 103.586 89.48 103.668 89.473 103.754 89.469 103.844 89.465 103.91 89.457 103.953 89.449 104 89.441 104.023 89.438 104.027 89.441H104.051V89.715C104.051 89.891 104.051 89.977 104.059 89.977 104.063 89.977 104.074 89.965 104.09 89.941 104.109 89.918 104.137 89.887 104.172 89.84 104.211 89.793 104.254 89.754 104.305 89.715 104.352 89.68 104.418 89.637 104.5 89.586 104.582 89.535 104.672 89.5 104.762 89.477 104.852 89.453 104.969 89.441 105.109 89.441 105.633 89.461 105.922 89.719 105.98 90.215 105.984 90.246 105.988 90.566 105.988 91.168V91.758C105.988 91.93 105.992 92.031 106 92.063 106.012 92.098 106.035 92.117 106.074 92.133 106.172 92.148 106.285 92.152 106.41 92.152H106.52V92.469H106.465L106.301 92.461C106.195 92.457 106.082 92.453 105.961 92.453 105.836 92.453 105.75 92.453 105.699 92.449 105.23 92.449 104.973 92.453 104.934 92.469H104.879V92.152H104.988C105.266 92.152 105.406 92.117 105.406 92.043 105.41 92.035 105.41 91.719 105.41 91.098 105.406 90.484 105.402 90.156 105.398 90.121 105.371 89.992 105.324 89.898 105.262 89.832 105.199 89.77 105.145 89.73 105.098 89.715 105.051 89.703 104.992 89.699 104.918 89.703 104.715 89.703 104.535 89.781 104.379 89.934 104.254 90.059 104.176 90.184 104.145 90.313 104.113 90.441 104.094 90.629 104.09 90.879V91.73C104.09 91.867 104.094 91.957 104.098 92.004 104.102 92.047 104.109 92.078 104.117 92.09 104.129 92.105 104.148 92.117 104.18 92.133 104.277 92.148 104.387 92.152 104.516 92.152H104.625V92.469H104.57L104.414 92.461C104.305 92.457 104.188 92.453 104.063 92.453 103.941 92.453 103.855 92.453 103.805 92.449 103.332 92.449 103.078 92.453 103.035 92.469H102.98V92.152ZM103.09 92.152" fill="#7f7f7f"/>
<path d="M108.637 90.305C108.637 90.121 108.574 89.965 108.453 89.832 108.328 89.699 108.152 89.633 107.918 89.633 107.754 89.633 107.613 89.664 107.492 89.723 107.355 89.809 107.289 89.93 107.289 90.078 107.285 90.102 107.285 90.133 107.289 90.168 107.293 90.203 107.328 90.258 107.398 90.332 107.465 90.406 107.563 90.461 107.691 90.504 107.773 90.527 107.875 90.547 107.992 90.566 108.113 90.582 108.211 90.605 108.293 90.625 108.375 90.648 108.449 90.68 108.512 90.715 108.59 90.754 108.668 90.797 108.738 90.852 108.813 90.906 108.887 91 108.957 91.133 109.031 91.266 109.07 91.406 109.074 91.559 109.074 91.84 108.988 92.074 108.813 92.258 108.641 92.438 108.359 92.531 107.973 92.535H107.918C107.68 92.535 107.461 92.453 107.262 92.289L107.207 92.34 107.145 92.398C107.117 92.426 107.09 92.453 107.063 92.477L106.988 92.543H106.906C106.891 92.543 106.871 92.531 106.844 92.504V91.566C106.844 91.469 106.848 91.41 106.855 91.395 106.867 91.375 106.887 91.363 106.926 91.359H106.988C107.043 91.359 107.078 91.367 107.098 91.387 107.113 91.406 107.125 91.434 107.129 91.469 107.137 91.504 107.152 91.566 107.18 91.652 107.207 91.742 107.25 91.836 107.309 91.941 107.469 92.176 107.691 92.289 107.973 92.289 108.414 92.289 108.637 92.113 108.637 91.758 108.637 91.625 108.594 91.516 108.512 91.434 108.422 91.324 108.234 91.242 107.945 91.188 107.656 91.133 107.469 91.082 107.375 91.031 107.211 90.953 107.082 90.848 106.988 90.715 106.891 90.582 106.844 90.441 106.844 90.293 106.844 90.113 106.883 89.961 106.961 89.84 107.035 89.715 107.137 89.625 107.254 89.566 107.371 89.508 107.488 89.465 107.598 89.441 107.707 89.418 107.805 89.41 107.898 89.41H107.973C108.156 89.41 108.316 89.441 108.453 89.512L108.555 89.566 108.617 89.52C108.66 89.477 108.711 89.438 108.766 89.402H108.848C108.863 89.402 108.883 89.414 108.91 89.441V90.348L108.871 90.387H108.676C108.648 90.359 108.637 90.332 108.637 90.305ZM108.637 90.305" fill="#7f7f7f"/>
<path transform="matrix(-.9686,0,0,1,0,0)" stroke-width=".576048" stroke-linecap="butt" stroke-linejoin="round" fill="none" stroke="#7f7f7f" d="M-104.436 19.074V14.242C-104.436 9.602-100.673 5.84-96.031 5.84H-67.381"/>
<path d="M66.047 4.227 61.75 5.84 66.047 7.453C65.266 6.516 65.266 5.172 66.047 4.227ZM66.047 4.227" fill="#7f7f7f" fill-rule="evenodd"/>
<path transform="matrix(.891672,0,0,1,0,0)" stroke-width=".600381" stroke-linecap="butt" stroke-linejoin="round" fill="none" stroke="#7f7f7f" d="M3.43 20.09V13.398C3.43 9.242 6.799 5.875 10.952 5.875H43.23"/>
<path d="M37.797 4.195 41.922 5.875 37.797 7.559C38.547 6.578 38.547 5.18 37.797 4.195ZM37.797 4.195" fill="#7f7f7f" fill-rule="evenodd"/>
<path d="M44.387 9.055C44.387 9.055 44.336 9.055 44.242 9.055 44.145 9.055 44.094 9.016 44.094 8.945 44.094 8.883 44.172 8.77 44.328 8.609 44.484 8.445 44.57 8.348 44.59 8.309 44.781 8.043 44.961 7.664 45.121 7.176 45.285 6.684 45.418 6.207 45.527 5.742 45.637 5.277 45.813 4.781 46.051 4.262 46.289 3.738 46.578 3.297 46.914 2.941 47.18 2.684 47.488 2.465 47.844 2.285 48.199 2.105 48.559 2.012 48.926 2.012 49.109 2.012 49.262 2.043 49.383 2.102 49.504 2.16 49.59 2.238 49.633 2.344 49.68 2.445 49.715 2.531 49.742 2.594 49.766 2.66 49.777 2.73 49.77 2.809V2.922C49.77 3.109 49.762 3.238 49.742 3.313 49.723 3.383 49.668 3.457 49.574 3.535 49.465 3.645 49.336 3.734 49.188 3.805 49.039 3.875 48.91 3.91 48.801 3.91 48.703 3.91 48.656 3.875 48.656 3.805 48.656 3.785 48.664 3.734 48.676 3.648 48.688 3.566 48.695 3.488 48.695 3.418 48.695 3.223 48.652 3.063 48.57 2.934 48.484 2.805 48.352 2.738 48.164 2.738 47.977 2.738 47.84 2.781 47.754 2.867 47.477 3.117 47.23 3.52 47.012 4.074 46.789 4.633 46.59 5.246 46.41 5.926 46.23 6.602 46.105 7.027 46.043 7.195 45.898 7.496 45.805 7.684 45.762 7.754L45.703 7.844 45.953 7.852C46.324 7.852 46.789 7.926 47.359 8.074 47.926 8.223 48.379 8.309 48.715 8.336H48.852C48.926 8.258 48.996 8.145 49.055 7.996 49.113 7.848 49.223 7.715 49.391 7.602 49.633 7.445 49.832 7.367 49.992 7.367 50.09 7.367 50.137 7.398 50.137 7.465 50.137 7.73 49.918 8.059 49.48 8.453 49.039 8.848 48.539 9.047 47.977 9.055 47.645 9.055 47.18 8.98 46.586 8.832 45.992 8.684 45.563 8.594 45.297 8.57L45.152 8.559 45.055 8.645C44.926 8.773 44.781 8.875 44.629 8.945ZM44.387 9.055" fill="#7f7f7f"/>
<path d="M51.031 9.977H51.129C51.309 9.977 51.414 9.945 51.449 9.883V9.828C51.449 9.785 51.449 9.734 51.449 9.668 51.449 9.605 51.453 9.535 51.457 9.457 51.461 9.379 51.461 9.289 51.457 9.191 51.453 9.09 51.453 8.992 51.457 8.902 51.457 8.762 51.457 8.609 51.457 8.449 51.457 8.289 51.457 8.156 51.457 8.047L51.449 7.891C51.438 7.801 51.406 7.746 51.355 7.719 51.305 7.691 51.203 7.672 51.047 7.656H50.922V7.5C50.922 7.395 50.93 7.34 50.938 7.34L51.004 7.336C51.051 7.332 51.113 7.324 51.199 7.32 51.281 7.316 51.363 7.313 51.445 7.309 51.516 7.305 51.598 7.297 51.684 7.293 51.77 7.289 51.836 7.281 51.883 7.273 51.926 7.266 51.953 7.262 51.957 7.266H51.977V7.738C52.156 7.43 52.379 7.273 52.641 7.273H52.684C52.887 7.273 53.039 7.324 53.133 7.426 53.23 7.523 53.277 7.629 53.277 7.738 53.277 7.836 53.25 7.918 53.188 7.984 53.129 8.055 53.043 8.09 52.93 8.09 52.816 8.09 52.73 8.051 52.676 7.977 52.621 7.906 52.59 7.828 52.586 7.746 52.586 7.703 52.59 7.668 52.602 7.637 52.609 7.605 52.621 7.578 52.637 7.555 52.648 7.531 52.656 7.52 52.656 7.52 52.645 7.512 52.594 7.52 52.496 7.547 52.426 7.582 52.371 7.617 52.332 7.648 52.121 7.855 52.012 8.262 52.012 8.875V9.238C52.012 9.297 52.012 9.359 52.012 9.422 52.012 9.488 52.012 9.547 52.012 9.602 52.012 9.656 52.016 9.703 52.02 9.738 52.023 9.773 52.023 9.809 52.02 9.84V9.875C52.023 9.883 52.031 9.895 52.039 9.902 52.047 9.91 52.059 9.918 52.074 9.922 52.086 9.926 52.098 9.934 52.109 9.941 52.117 9.953 52.133 9.957 52.156 9.957 52.18 9.957 52.195 9.961 52.203 9.965 52.211 9.969 52.234 9.969 52.266 9.969 52.297 9.969 52.316 9.969 52.328 9.969 52.336 9.969 52.359 9.973 52.395 9.977 52.434 9.98 52.453 9.98 52.465 9.977H52.676V10.293H52.613C52.531 10.277 52.242 10.273 51.746 10.273 51.273 10.273 51.02 10.277 50.977 10.293H50.922V9.977ZM51.031 9.977" fill="#7f7f7f"/>
<path d="M53.66 8.801C53.66 8.551 53.707 8.32 53.797 8.117 53.891 7.91 54.004 7.742 54.141 7.617 54.277 7.488 54.426 7.391 54.586 7.328 54.746 7.266 54.895 7.23 55.039 7.227 55.281 7.227 55.488 7.266 55.66 7.348 55.836 7.43 55.965 7.543 56.059 7.691 56.148 7.836 56.215 7.984 56.25 8.129 56.285 8.273 56.305 8.438 56.313 8.613 56.313 8.648 56.297 8.68 56.262 8.711H54.332V8.813C54.332 9.488 54.563 9.898 55.016 10.047 55.109 10.074 55.207 10.086 55.32 10.086 55.512 10.086 55.676 10.016 55.813 9.867 55.891 9.789 55.949 9.695 55.996 9.582L56.066 9.414C56.078 9.402 56.113 9.395 56.176 9.395H56.195C56.273 9.395 56.313 9.418 56.313 9.465 56.313 9.48 56.305 9.512 56.289 9.555 56.203 9.805 56.059 10.004 55.859 10.148 55.66 10.293 55.434 10.367 55.18 10.367 54.746 10.367 54.387 10.211 54.102 9.895 53.813 9.582 53.668 9.215 53.66 8.801ZM55.75 8.41C55.699 7.824 55.484 7.516 55.098 7.48H55.086C55.051 7.48 55.012 7.48 54.977 7.484 54.941 7.488 54.883 7.508 54.805 7.539 54.727 7.57 54.66 7.621 54.605 7.684 54.551 7.746 54.5 7.84 54.449 7.965 54.398 8.09 54.363 8.238 54.34 8.418V8.465H55.75ZM55.75 8.41" fill="#7f7f7f"/>
<path d="M59.043 8.203C59.043 8.203 58.996 8.203 58.898 8.203 58.805 8.203 58.723 8.172 58.652 8.102 58.582 8.031 58.547 7.945 58.543 7.84 58.543 7.738 58.578 7.648 58.645 7.582 58.668 7.559 58.68 7.543 58.68 7.539 58.68 7.535 58.656 7.531 58.609 7.527 58.492 7.508 58.379 7.5 58.277 7.5 58.051 7.5 57.871 7.57 57.727 7.719 57.512 7.934 57.406 8.289 57.406 8.793 57.406 9.168 57.477 9.461 57.617 9.676 57.805 9.953 58.059 10.094 58.371 10.094 58.559 10.094 58.711 10.035 58.824 9.914 58.938 9.797 59.02 9.656 59.07 9.492 59.078 9.453 59.09 9.434 59.105 9.422 59.117 9.414 59.156 9.41 59.215 9.41H59.309C59.336 9.438 59.352 9.457 59.352 9.473 59.352 9.488 59.34 9.527 59.324 9.582 59.305 9.637 59.27 9.711 59.215 9.805 59.16 9.902 59.094 9.988 59.016 10.066 58.938 10.145 58.828 10.215 58.688 10.277 58.547 10.344 58.387 10.371 58.215 10.367 57.82 10.367 57.48 10.223 57.188 9.93 56.895 9.637 56.746 9.27 56.742 8.828 56.742 8.352 56.891 7.969 57.188 7.672 57.484 7.375 57.828 7.227 58.223 7.227 58.613 7.227 58.887 7.285 59.043 7.41 59.199 7.535 59.273 7.68 59.273 7.848 59.273 7.953 59.238 8.039 59.16 8.102ZM59.043 8.203" fill="#7f7f7f"/>
<path d="M33.25 38.387H70.195C72.27 38.387 73.945 40.066 73.945 42.137V47.066C73.945 49.137 72.27 50.816 70.195 50.816H33.25C31.18 50.816 29.5 49.137 29.5 47.066V42.137C29.5 40.066 31.18 38.387 33.25 38.387ZM33.25 38.387" fill="#f3f7fc"/>
<path stroke-width=".566929" stroke-linecap="butt" stroke-linejoin="round" fill="none" stroke="#35507d" d="M33.25 38.387H70.195C72.27 38.387 73.945 40.066 73.945 42.137V47.066C73.945 49.137 72.27 50.816 70.195 50.816H33.25C31.18 50.816 29.5 49.137 29.5 47.066V42.137C29.5 40.066 31.18 38.387 33.25 38.387ZM33.25 38.387"/>
<text fill="#26395a" xml:space="preserve" transform="matrix(1 0 0 1 0 0)" font-size="6" font-family="Roboto"><tspan y="46.822748" x="32.46188 34.43588 37.61588 40.75388 44.17388 49.429883 52.795885 54.253885 57.565885 60.829885 62.791887 64.249889 67.66988">recombination</tspan><tspan y="40.40217" x="209.88121 211.85521 215.03522 218.17322 221.59322 226.84922 230.21521 231.6732 234.9852 238.2492 240.21121 241.6692 245.0892">recombination</tspan></text>
<path stroke-width=".566929" stroke-linecap="square" stroke-dasharray=".566929,1.41732" stroke-dashoffset="1.133861" stroke-linejoin="round" fill="none" stroke="#000000" d="M6.188 73.887H28.332"/>
<path d="M27.535 72.301 31.902 73.887 27.535 75.473C28.332 74.551 28.332 73.227 27.535 72.301ZM27.535 72.301" fill-rule="evenodd"/>
<text xml:space="preserve" transform="matrix(1 0 0 1 0 0)" font-size="6.000009" font-family="Roboto"><tspan y="81.74097" x="2.512953 5.6089584 7.5109617 10.930967 14.296972 15.952975 19.318982 21.232985 24.49699 27.880995 29.338997 32.519 35.831007">stop-gradient</tspan><tspan y="89.54098" x="5.3225295 8.460534 11.88054 15.192545 18.50455 21.684556 24.82256 26.784564 28.242566 31.66257">connection</tspan></text>
<path d="M166.523 .285H432.976V93.828H166.523Z" fill="#f7f7f7"/>
<path stroke-width=".566926" stroke-linecap="square" stroke-dasharray=".566926,3.401575" stroke-miterlimit="4" stroke-linejoin="miter" fill="none" stroke="#7f7f7f" d="M166.523 .285H432.976V93.828H166.523Z"/>
<path transform="matrix(1,0,0,.940695,0,0)" d="M240.844 3.314H355.539C362.145 3.314 367.496 8.67 367.496 15.273V84.769C367.496 91.376 362.145 96.729 355.539 96.729H240.844C234.238 96.729 228.883 91.376 228.883 84.769V15.273C228.883 8.67 234.238 3.314 240.844 3.314ZM240.844 3.314" fill="#f3f6fc"/>
<path transform="matrix(1,0,0,.940695,0,0)" stroke-width=".584527" stroke-linecap="square" stroke-miterlimit="4" stroke-linejoin="miter" fill="none" stroke="#35507d" d="M240.844 3.314H355.539C362.145 3.314 367.496 8.67 367.496 15.273V84.769C367.496 91.376 362.145 96.729 355.539 96.729H240.844C234.238 96.729 228.883 91.376 228.883 84.769V15.273C228.883 8.67 234.238 3.314 240.844 3.314ZM240.844 3.314"/>
<path d="M172.191 11.621H200.539V39.969H172.191Z"/>
<path d="M183.531 18.707C183.531 21.059 181.625 22.961 179.277 22.961 176.93 22.961 175.027 21.059 175.027 18.707 175.027 16.359 176.93 14.457 179.277 14.457 181.625 14.457 183.531 16.359 183.531 18.707ZM183.531 18.707" fill="#c44e52"/>
<path d="M197.703 22.961H187.883L192.793 14.457ZM197.703 22.961" fill="#8172b3"/>
<path d="M172.191 54.141H200.539V82.489H172.191Z"/>
<path d="M183.531 75.402C183.531 77.75 181.625 79.652 179.277 79.652 176.93 79.652 175.027 77.75 175.027 75.402 175.027 73.055 176.93 71.148 179.277 71.148 181.625 71.148 183.531 73.055 183.531 75.402ZM183.531 75.402" fill="#c44e52"/>
<path d="M197.703 79.652H187.883L192.793 71.148ZM197.703 79.652" fill="#8172b3"/>
<path d="M183.973 46.473H183.867C183.738 46.473 183.672 46.43 183.672 46.34 183.672 46.324 183.68 46.289 183.691 46.23 183.703 46.172 183.738 46.094 183.797 45.988 183.855 45.887 183.922 45.781 183.992 45.672 184.063 45.559 184.172 45.445 184.32 45.32 184.469 45.199 184.629 45.098 184.797 45.012 185.059 44.895 185.301 44.836 185.512 44.836H185.543C185.781 44.836 185.93 44.84 185.988 44.848 186.477 44.93 186.801 45.094 186.953 45.332L187.051 45.234C187.324 44.965 187.617 44.828 187.934 44.828 188.289 44.828 188.563 44.93 188.754 45.129 188.949 45.328 189.051 45.57 189.055 45.855 189.055 46.133 188.973 46.344 188.805 46.492 188.637 46.641 188.457 46.719 188.262 46.727 188.113 46.727 187.988 46.68 187.883 46.59 187.781 46.5 187.73 46.379 187.73 46.223 187.73 45.996 187.813 45.805 187.98 45.652 188.066 45.586 188.168 45.527 188.289 45.477 188.289 45.469 188.277 45.457 188.254 45.438 188.227 45.418 188.18 45.395 188.117 45.371 188.051 45.344 187.98 45.332 187.902 45.332 187.828 45.332 187.77 45.336 187.73 45.352 187.516 45.449 187.363 45.633 187.273 45.902 186.879 47.355 186.684 48.199 186.684 48.43 186.684 48.664 186.848 48.777 187.176 48.777 187.461 48.777 187.719 48.68 187.953 48.488 188.184 48.293 188.348 48.074 188.438 47.828 188.461 47.738 188.484 47.684 188.504 47.664 188.523 47.645 188.59 47.637 188.699 47.637H188.863C188.992 47.637 189.055 47.68 189.055 47.77 189.055 47.855 189.016 47.977 188.93 48.129 188.848 48.285 188.73 48.449 188.582 48.625 188.434 48.797 188.223 48.953 187.953 49.09 187.68 49.223 187.398 49.289 187.102 49.281 186.559 49.281 186.137 49.145 185.832 48.867L185.754 48.777C185.477 49.109 185.164 49.273 184.816 49.273H184.766C184.398 49.273 184.125 49.168 183.945 48.961 183.762 48.754 183.672 48.531 183.672 48.285 183.672 47.977 183.758 47.75 183.934 47.605 184.109 47.465 184.285 47.391 184.465 47.383 184.613 47.383 184.742 47.43 184.844 47.52 184.945 47.609 185 47.734 185 47.887 185 48.113 184.914 48.305 184.746 48.457 184.664 48.523 184.559 48.582 184.438 48.633 184.449 48.664 184.496 48.699 184.574 48.73 184.648 48.762 184.73 48.781 184.816 48.789 184.957 48.789 185.082 48.73 185.191 48.613 185.301 48.496 185.387 48.363 185.445 48.207 185.84 46.754 186.035 45.914 186.035 45.68 186.035 45.449 185.871 45.332 185.543 45.332 185.309 45.332 185.078 45.406 184.844 45.555 184.613 45.703 184.426 45.945 184.293 46.281 184.266 46.371 184.242 46.426 184.223 46.445 184.203 46.465 184.141 46.473 184.031 46.473ZM183.973 46.473"/>
<path stroke-width=".566929" stroke-linecap="butt" stroke-linejoin="round" fill="none" stroke="#000000" d="M200.539 25.797H233.785"/>
<path d="M232.992 24.207 237.359 25.797 232.992 27.383C233.785 26.457 233.785 25.137 232.992 24.207ZM232.992 24.207" fill-rule="evenodd"/>
<path stroke-width=".566929" stroke-linecap="butt" stroke-linejoin="round" fill="none" stroke="#000000" d="M200.539 68.316H233.785"/>
<path d="M232.992 66.727 237.359 68.316 232.992 69.902C233.785 68.977 233.785 67.656 232.992 66.727ZM232.992 66.727" fill-rule="evenodd"/>
<path d="M206.207 34.238 223.391 29.152V22.375L206.207 17.293ZM206.207 34.238" fill="#f7f7f7"/>
<path stroke-width=".566929" stroke-linecap="square" stroke-linejoin="round" fill="none" stroke="#000000" d="M206.207 34.238 223.391 29.152V22.375L206.207 17.293ZM206.207 34.238"/>
<path d="M210.887 28.094C210.34 28.094 209.906 27.957 209.59 27.68 209.273 27.402 209.113 27.004 209.105 26.488 209.105 26.223 209.152 25.945 209.25 25.656 209.348 25.363 209.496 25.078 209.695 24.793 209.895 24.512 210.168 24.273 210.508 24.086 210.852 23.898 211.246 23.781 211.691 23.73L211.719 23.719C211.738 23.719 211.758 23.719 211.777 23.719 211.789 23.719 211.813 23.719 211.848 23.719 211.879 23.719 211.906 23.723 211.934 23.73 212.141 23.73 212.316 23.754 212.465 23.805 212.613 23.859 212.727 23.914 212.805 23.98L212.91 24.066 212.98 24.02C213.023 23.988 213.086 23.957 213.164 23.934 213.238 23.906 213.324 23.891 213.414 23.883 213.563 23.883 213.684 23.926 213.773 24.008 213.863 24.094 213.91 24.211 213.918 24.359 213.918 24.41 213.734 25.168 213.367 26.633 212.996 28.098 212.809 28.852 212.793 28.891 212.645 29.258 212.359 29.543 211.934 29.742 211.508 29.941 210.965 30.047 210.305 30.051 209.691 30.051 209.27 29.992 209.039 29.867 208.805 29.746 208.688 29.559 208.688 29.305 208.688 29.082 208.766 28.895 208.922 28.746 209.078 28.598 209.262 28.52 209.473 28.512 209.617 28.512 209.738 28.555 209.84 28.637 209.945 28.723 210 28.859 210.008 29.055 209.988 29.215 209.914 29.379 209.793 29.539L209.879 29.547H210.461C210.711 29.547 210.941 29.473 211.148 29.324 211.355 29.176 211.5 29.008 211.586 28.813 211.59 28.793 211.613 28.707 211.652 28.551 211.691 28.395 211.73 28.246 211.77 28.105 211.809 27.965 211.828 27.887 211.828 27.871 211.82 27.871 211.773 27.891 211.691 27.922 211.605 27.953 211.492 27.992 211.344 28.039 211.195 28.082 211.043 28.102 210.887 28.094ZM212.629 24.676C212.625 24.672 212.613 24.656 212.602 24.629 212.59 24.602 212.574 24.582 212.563 24.563 212.551 24.543 212.535 24.523 212.516 24.504 212.496 24.484 212.473 24.457 212.445 24.426 212.422 24.395 212.398 24.375 212.379 24.367 212.359 24.363 212.328 24.344 212.281 24.309 212.234 24.277 212.199 24.262 212.176 24.262 212.148 24.262 212.105 24.25 212.039 24.223 211.977 24.195 211.922 24.195 211.875 24.211 211.688 24.211 211.52 24.25 211.371 24.328 211.223 24.406 211.102 24.516 211.012 24.66 210.922 24.801 210.855 24.922 210.809 25.027 210.766 25.129 210.719 25.25 210.676 25.383 210.453 26.238 210.344 26.789 210.344 27.039 210.344 27.246 210.406 27.391 210.527 27.477 210.652 27.559 210.797 27.602 210.965 27.602 211.133 27.602 211.328 27.551 211.555 27.445 211.723 27.352 211.855 27.25 211.953 27.148L212.031 27.07ZM212.629 24.676"/>
<path d="M210.301 22.422 211.625 21.125 211.703 21.203C212.543 22.004 212.965 22.41 212.965 22.422L212.711 22.703C212.699 22.695 212.512 22.535 212.148 22.219L211.637 21.773 211.105 22.227C211.02 22.301 210.938 22.375 210.852 22.449 210.77 22.527 210.699 22.59 210.648 22.633L210.57 22.691C210.559 22.707 210.512 22.66 210.426 22.559ZM210.301 22.422"/>
<path d="M206.207 76.758 223.391 71.672V64.895L206.207 59.813ZM206.207 76.758" fill="#f7f7f7"/>
<path stroke-width=".566929" stroke-linecap="square" stroke-linejoin="round" fill="none" stroke="#000000" d="M206.207 76.758 223.391 71.672V64.895L206.207 59.813ZM206.207 76.758"/>
<path d="M210.887 70.617C210.34 70.617 209.906 70.477 209.59 70.199 209.273 69.922 209.113 69.523 209.105 69.008 209.105 68.742 209.152 68.465 209.25 68.176 209.348 67.887 209.496 67.598 209.695 67.313 209.895 67.031 210.168 66.793 210.508 66.605 210.852 66.418 211.246 66.301 211.691 66.25L211.719 66.238C211.738 66.238 211.758 66.238 211.777 66.238 211.789 66.238 211.813 66.238 211.848 66.238 211.879 66.238 211.906 66.242 211.934 66.25 212.141 66.25 212.316 66.273 212.465 66.324 212.613 66.379 212.727 66.438 212.805 66.5L212.91 66.586 212.98 66.539C213.023 66.508 213.086 66.477 213.164 66.453 213.238 66.426 213.324 66.41 213.414 66.402 213.563 66.402 213.684 66.445 213.773 66.527 213.863 66.613 213.91 66.73 213.918 66.879 213.918 66.93 213.734 67.688 213.367 69.152 212.996 70.617 212.809 71.371 212.793 71.41 212.645 71.777 212.359 72.063 211.934 72.262 211.508 72.461 210.965 72.566 210.305 72.57 209.691 72.57 209.27 72.512 209.039 72.387 208.805 72.266 208.688 72.078 208.688 71.824 208.688 71.602 208.766 71.414 208.922 71.266 209.078 71.117 209.262 71.039 209.473 71.031 209.617 71.031 209.738 71.074 209.84 71.156 209.945 71.242 210 71.379 210.008 71.574 209.988 71.734 209.914 71.898 209.793 72.059L209.879 72.066H210.461C210.711 72.066 210.941 71.992 211.148 71.844 211.355 71.695 211.5 71.527 211.586 71.332 211.59 71.313 211.613 71.227 211.652 71.07 211.691 70.914 211.73 70.766 211.77 70.625 211.809 70.484 211.828 70.406 211.828 70.395 211.82 70.395 211.773 70.41 211.691 70.441 211.605 70.473 211.492 70.512 211.344 70.559 211.195 70.602 211.043 70.621 210.887 70.617ZM212.629 67.199C212.625 67.191 212.613 67.176 212.602 67.148 212.59 67.125 212.574 67.102 212.563 67.082 212.551 67.063 212.535 67.043 212.516 67.023 212.496 67.004 212.473 66.977 212.445 66.945 212.422 66.914 212.398 66.895 212.379 66.887 212.359 66.883 212.328 66.863 212.281 66.828 212.234 66.797 212.199 66.781 212.176 66.781 212.148 66.781 212.105 66.77 212.039 66.742 211.977 66.715 211.922 66.715 211.875 66.734 211.688 66.734 211.52 66.77 211.371 66.848 211.223 66.926 211.102 67.035 211.012 67.18 210.922 67.32 210.855 67.441 210.809 67.547 210.766 67.648 210.719 67.77 210.676 67.902 210.453 68.758 210.344 69.309 210.344 69.559 210.344 69.766 210.406 69.91 210.527 69.996 210.652 70.078 210.797 70.121 210.965 70.121 211.133 70.121 211.328 70.07 211.555 69.965 211.723 69.871 211.855 69.77 211.953 69.668L212.031 69.59ZM212.629 67.199"/>
<path d="M210.301 64.941 211.625 63.645 211.703 63.723C212.543 64.523 212.965 64.93 212.965 64.941L212.711 65.223C212.699 65.215 212.512 65.055 212.148 64.738L211.637 64.293 211.105 64.746C211.02 64.82 210.938 64.895 210.852 64.969 210.77 65.047 210.699 65.109 210.648 65.152L210.57 65.211C210.559 65.227 210.512 65.18 210.426 65.078ZM210.301 64.941"/>
<path transform="matrix(1,0,0,.925207,0,0)" stroke-width="1.178796" stroke-linecap="butt" stroke-linejoin="round" fill="none" stroke="#35507d" d="M250.043 9.5H254.066C255.313 9.5 256.328 10.509 256.328 11.758V44.276C256.328 45.522 255.313 46.535 254.066 46.535H250.043C248.793 46.535 247.781 45.522 247.781 44.276V11.758C247.781 10.509 248.793 9.5 250.043 9.5ZM250.043 9.5"/>
<path d="M249.219 10.332H254.887V16H249.219Z" fill="#c44e52"/>
<path d="M249.219 18.836H254.887V24.504002H249.219Z" fill="#c44e52"/>
<g clip-path="url(#clip_0)">
<rect transform="matrix(.00400879,.00400879,-.00400879,.00400879,13.351757,-184.59136)" fill="url(#pattern_1)" x="55852.09" y="-3692.371" width="1413.8945" height="1413.8926"/>
</g>
<g clip-path="url(#clip_3)">
<rect transform="matrix(.00400879,.00400879,-.00400879,.00400879,13.351757,-184.59136)" fill="url(#pattern_4)" x="56912.76" y="-2631.7032" width="1413.8906" height="1413.8945"/>
</g>
<path stroke-width=".566929" stroke-linecap="butt" stroke-linejoin="round" fill="none" stroke="#91393c" d="M245.379 10.203V24.379"/>
<text fill="#91393c" xml:space="preserve" transform="matrix(0 -.9514678 1.0510078 0 0 0)" font-size="5.999997" font-family="Roboto"><tspan y="231.68624" x="-25.595685 -22.499684 -21.041686 -17.621685 -15.659686 -14.171686">slot 2</tspan></text>
<path stroke-width=".566929" stroke-linecap="butt" stroke-linejoin="round" fill="none" stroke="#5c5180" d="M245.379 27.211V41.387"/>
<text fill="#5c5180" xml:space="preserve" transform="matrix(0 -.9514678 1.0510078 0 0 0)" font-size="5.999997" font-family="Roboto"><tspan y="231.68624" x="-42.964265 -39.868265 -38.410264 -34.990266 -33.028268 -31.540268">slot 1</tspan></text>
<path transform="matrix(1,0,0,.925207,0,0)" stroke-width="1.178796" stroke-linecap="butt" stroke-linejoin="round" fill="none" stroke="#35507d" d="M250.043 55.456H254.066C255.313 55.456 256.328 56.465 256.328 57.715V90.233C256.328 91.479 255.313 92.492 254.066 92.492H250.043C248.793 92.492 247.781 91.479 247.781 90.233V57.715C247.781 56.465 248.793 55.456 250.043 55.456ZM250.043 55.456"/>
<g clip-path="url(#clip_6)">
<rect transform="matrix(.00400879,.00400879,-.00400879,.00400879,13.351757,-142.07166)" fill="url(#pattern_7)" x="53730.79" y="-5813.672" width="1413.8945" height="1413.8926"/>
</g>
<g clip-path="url(#clip_9)">
<rect transform="matrix(.00400879,.00400879,-.00400879,.00400879,13.351757,-142.07166)" fill="url(#pattern_10)" x="54791.337" y="-4753.129" width="1413.8945" height="1413.8945"/>
</g>
<path d="M249.219 69.859H254.887V75.527H249.219Z" fill="#8172b3"/>
<path d="M249.219 78.363H254.887V84.031H249.219Z" fill="#8172b3"/>
<path stroke-width=".566929" stroke-linecap="butt" stroke-linejoin="round" fill="none" stroke="#91393c" d="M245.379 52.723V66.898"/>
<text fill="#91393c" xml:space="preserve" transform="matrix(0 -.9514678 1.0510078 0 0 0)" font-size="5.999997" font-family="Roboto"><tspan y="231.68624" x="-70.2842 -67.1882 -65.7302 -62.310205 -60.348207 -58.860208">slot 2</tspan></text>
<path stroke-width=".566929" stroke-linecap="butt" stroke-linejoin="round" fill="none" stroke="#5c5180" d="M245.379 69.73V83.906"/>
<text fill="#5c5180" xml:space="preserve" transform="matrix(0 -.9514678 1.0510078 0 0 0)" font-size="5.999997" font-family="Roboto"><tspan y="231.68624" x="-87.65278 -84.556789 -83.098789 -79.67879 -77.71679 -76.22879">slot 1</tspan></text>
<path stroke-width=".566929" stroke-linecap="square" stroke-linejoin="round" fill="none" stroke="#b2b2b2" d="M274.176 5.953H323.516V88.156009H274.176Z"/>
<path d="M323.516 88.156H308.094C301.598 68.43 296.914 68.988 293.336 58.563 289.547 47.523 292.867 33.977 286.434 24.234 283.699 20.102 274.176 15.816 274.176 15.816L274.238 5.953H280.219C282.906 12.156 289.363 15.012 292.492 20.551 298.855 31.82 297.566 46.77 305.066 57.309 309.594 63.676 323.516 71.715 323.516 71.715ZM323.516 88.156" fill="#5c8ad6"/>
<path stroke-width=".566929" stroke-linecap="square" stroke-linejoin="round" fill="none" stroke="#5c8ad6" d="M323.516 88.156H308.094C301.598 68.43 296.914 68.988 293.336 58.563 289.547 47.523 292.867 33.977 286.434 24.234 283.699 20.102 274.176 15.816 274.176 15.816L274.238 5.953H280.219C282.906 12.156 289.363 15.012 292.492 20.551 298.855 31.82 297.566 46.77 305.066 57.309 309.594 63.676 323.516 71.715 323.516 71.715ZM323.516 88.156"/>
<path stroke-width=".566929" stroke-linecap="butt" stroke-dasharray="2.834634,2.834634" stroke-linejoin="round" fill="none" stroke="#5c5180" d="M311.555 79.402 311.762 23.672"/>
<path d="M310.168 24.461 311.773 20.102 313.344 24.473C312.422 23.676 311.102 23.672 310.168 24.461ZM310.168 24.461" fill="#5c5180" fill-rule="evenodd"/>
<path stroke-width=".566932" stroke-linecap="butt" stroke-dasharray="2.834646,2.834646" stroke-linejoin="round" fill="none" stroke="#91393c" d="M283.375 16.004H304.23"/>
<path d="M303.438 14.414 307.801 16.004 303.438 17.59C304.23 16.664 304.23 15.344 303.438 14.414ZM303.438 14.414" fill="#91393c" fill-rule="evenodd"/>
<text fill="#91393c" xml:space="preserve" transform="matrix(1 0 0 1 0 0)" font-size="6.000009" font-family="Roboto"><tspan y="13.10963" x="289.66587 292.76188 294.21989 297.6399 299.6019 301.0899">slot 2</tspan></text>
<text fill="#5c5180" xml:space="preserve" transform="matrix(0 -1 1 0 0 0)" font-size="6.000009" font-family="Roboto"><tspan y="318.4671" x="-51.58539 -48.489385 -47.03138 -43.611375 -41.649374 -40.16137">slot 1</tspan></text>
<path d="M312.973 78.648C312.973 79.434 312.34 80.066 311.555 80.066 310.773 80.066 310.137 79.434 310.137 78.648 310.137 77.867 310.773 77.23 311.555 77.23 312.34 77.23 312.973 77.867 312.973 78.648ZM312.973 78.648" fill="#35507d"/>
<path d="M313.609 84.797H313.551C313.383 84.797 313.297 84.754 313.297 84.672 313.297 84.645 313.324 84.59 313.375 84.504 313.426 84.422 313.52 84.301 313.648 84.148 313.777 83.992 313.922 83.828 314.082 83.652 314.387 83.355 314.84 82.973 315.438 82.5 316.039 82.031 316.445 81.699 316.66 81.504L316.734 81.438H316.66C316.445 81.48 316.176 81.512 315.855 81.531 315.531 81.551 315.254 81.566 315.023 81.57 314.789 81.578 314.66 81.59 314.633 81.609 314.609 81.629 314.539 81.641 314.43 81.641H314.383C314.188 81.641 314.094 81.594 314.094 81.504 314.094 81.492 314.098 81.457 314.113 81.406 314.176 81.199 314.293 81.008 314.461 80.824 314.789 80.504 315.148 80.34 315.535 80.34 315.785 80.34 316.066 80.438 316.379 80.633 316.688 80.824 316.926 80.922 317.094 80.922 317.191 80.922 317.309 80.828 317.441 80.641 317.578 80.453 317.652 80.359 317.664 80.352 317.68 80.344 317.754 80.34 317.887 80.34H317.984C318.121 80.34 318.188 80.387 318.188 80.477 318.188 80.523 318.113 80.641 317.965 80.836 317.816 81.027 317.629 81.246 317.402 81.484 317.105 81.773 316.637 82.176 315.988 82.684 315.453 83.098 315.063 83.418 314.82 83.645L314.742 83.723H314.855C314.91 83.723 314.969 83.719 315.031 83.711 315.098 83.703 315.184 83.695 315.293 83.684 315.402 83.668 315.492 83.66 315.563 83.652 315.777 83.629 316 83.609 316.23 83.594 316.465 83.582 316.641 83.574 316.754 83.566 316.871 83.559 316.992 83.547 317.113 83.527 317.234 83.508 317.324 83.473 317.375 83.422 317.426 83.371 317.473 83.297 317.512 83.199 317.535 83.141 317.621 83.109 317.762 83.109 317.93 83.109 318.027 83.129 318.051 83.16 318.098 83.191 318.109 83.258 318.082 83.352 317.965 83.742 317.734 84.074 317.383 84.359 317.035 84.645 316.652 84.785 316.23 84.785 315.973 84.785 315.695 84.691 315.398 84.504 315.102 84.316 314.863 84.223 314.684 84.215 314.535 84.215 314.395 84.262 314.266 84.352 314.137 84.441 314.027 84.539 313.938 84.641L313.82 84.785C313.809 84.793 313.738 84.797 313.609 84.797ZM313.609 84.797" fill="#26395a"/>
<path d="M314.938 79.043 316.266 77.746 316.344 77.824C317.184 78.625 317.602 79.031 317.602 79.043L317.352 79.324C317.336 79.32 317.148 79.156 316.789 78.84L316.273 78.395 315.742 78.852C315.66 78.922 315.574 78.996 315.492 79.074 315.406 79.152 315.34 79.211 315.289 79.258L315.211 79.316C315.195 79.328 315.148 79.281 315.066 79.18ZM314.938 79.043" fill="#26395a"/>
<path d="M284.672 16.004C284.672 16.785 284.039 17.422 283.258 17.422 282.473 17.422 281.84 16.785 281.84 16.004 281.84 15.219 282.473 14.586 283.258 14.586 284.039 14.586 284.672 15.219 284.672 16.004ZM284.672 16.004" fill="#35507d"/>
<path d="M276.688 15.156H276.629C276.461 15.156 276.375 15.113 276.375 15.031 276.375 15.004 276.402 14.949 276.453 14.863 276.504 14.781 276.594 14.66 276.723 14.508 276.852 14.352 277 14.188 277.16 14.012 277.465 13.715 277.914 13.332 278.516 12.859 279.117 12.391 279.523 12.059 279.734 11.863L279.813 11.797H279.734C279.523 11.84 279.254 11.871 278.934 11.891 278.609 11.91 278.332 11.926 278.098 11.93 277.867 11.938 277.738 11.949 277.711 11.969 277.688 11.988 277.617 12 277.508 12H277.461C277.266 12 277.168 11.953 277.168 11.863 277.168 11.852 277.176 11.816 277.188 11.766 277.254 11.559 277.371 11.367 277.539 11.184 277.867 10.863 278.227 10.703 278.613 10.703 278.863 10.703 279.145 10.797 279.453 10.992 279.766 11.184 280.004 11.281 280.172 11.281 280.27 11.281 280.383 11.188 280.52 11 280.656 10.813 280.73 10.719 280.742 10.711 280.754 10.703 280.828 10.703 280.965 10.703H281.063C281.199 10.703 281.266 10.746 281.266 10.836 281.266 10.883 281.191 11 281.043 11.195 280.895 11.391 280.707 11.605 280.48 11.844 280.184 12.133 279.715 12.535 279.066 13.043 278.531 13.457 278.141 13.777 277.895 14.004L277.82 14.082H277.934C277.988 14.082 278.043 14.078 278.109 14.07 278.172 14.063 278.262 14.055 278.371 14.043 278.48 14.027 278.57 14.02 278.641 14.012 278.855 13.988 279.078 13.969 279.309 13.953 279.543 13.941 279.715 13.934 279.832 13.926 279.949 13.918 280.066 13.906 280.191 13.887 280.313 13.867 280.402 13.832 280.453 13.781 280.504 13.73 280.551 13.656 280.586 13.559 280.613 13.5 280.699 13.469 280.84 13.469 281.008 13.469 281.105 13.488 281.129 13.52 281.176 13.551 281.184 13.617 281.16 13.711 281.043 14.102 280.813 14.438 280.461 14.719 280.113 15.004 279.73 15.145 279.309 15.145 279.051 15.145 278.773 15.051 278.477 14.863 278.18 14.676 277.941 14.582 277.762 14.574 277.613 14.574 277.473 14.621 277.344 14.711 277.215 14.801 277.105 14.898 277.016 15L276.898 15.145C276.887 15.152 276.816 15.156 276.688 15.156ZM276.688 15.156" fill="#26395a"/>
<path d="M278.016 9.402 279.344 8.105 279.422 8.184C280.258 8.984 280.68 9.391 280.68 9.402L280.426 9.684C280.414 9.68 280.227 9.516 279.867 9.199L279.352 8.754 278.82 9.211C278.734 9.281 278.652 9.355 278.566 9.434 278.484 9.512 278.418 9.57 278.363 9.617L278.289 9.676C278.273 9.688 278.227 9.645 278.141 9.539ZM278.016 9.402" fill="#26395a"/>
<path d="M313.176 16.004C313.176 16.785 312.543 17.422 311.762 17.422 310.977 17.422 310.344 16.785 310.344 16.004 310.344 15.219 310.977 14.586 311.762 14.586 312.543 14.586 313.176 15.219 313.176 16.004ZM313.176 16.004" fill="#999999"/>
<path d="M314.461 15.676H314.406C314.238 15.676 314.156 15.637 314.156 15.551 314.156 15.527 314.18 15.469 314.23 15.387 314.281 15.301 314.371 15.184 314.5 15.027 314.629 14.871 314.773 14.707 314.934 14.531 315.234 14.234 315.684 13.848 316.277 13.375 316.875 12.902 317.277 12.57 317.488 12.375L317.566 12.305H317.488C317.277 12.352 317.012 12.383 316.691 12.402 316.371 12.422 316.098 12.438 315.867 12.441 315.637 12.449 315.508 12.461 315.48 12.48 315.457 12.5 315.387 12.512 315.281 12.512H315.23C315.039 12.512 314.941 12.465 314.941 12.375 314.941 12.363 314.949 12.328 314.961 12.277 315.027 12.07 315.141 11.875 315.309 11.695 315.637 11.371 315.992 11.207 316.375 11.207 316.625 11.207 316.902 11.305 317.211 11.5 317.52 11.695 317.754 11.793 317.922 11.793 318.02 11.793 318.133 11.699 318.27 11.512 318.402 11.32 318.477 11.227 318.488 11.219 318.5 11.211 318.574 11.207 318.711 11.207H318.805C318.941 11.207 319.008 11.254 319.008 11.344 319.008 11.391 318.934 11.512 318.785 11.703 318.641 11.898 318.453 12.117 318.23 12.355 317.934 12.648 317.469 13.047 316.828 13.559 316.293 13.973 315.906 14.293 315.664 14.523L315.586 14.598H315.703C315.754 14.598 315.813 14.598 315.875 14.59 315.938 14.582 316.027 14.574 316.133 14.559 316.242 14.547 316.332 14.539 316.402 14.531 316.613 14.504 316.836 14.484 317.066 14.473 317.297 14.461 317.469 14.449 317.586 14.445 317.699 14.438 317.82 14.426 317.941 14.406 318.063 14.387 318.148 14.352 318.199 14.297 318.254 14.246 318.297 14.172 318.336 14.074 318.359 14.016 318.445 13.988 318.586 13.988 318.75 13.988 318.848 14.004 318.875 14.035 318.918 14.066 318.93 14.133 318.902 14.23 318.785 14.617 318.555 14.957 318.211 15.242 317.863 15.527 317.484 15.668 317.066 15.668 316.809 15.668 316.535 15.574 316.242 15.387 315.945 15.199 315.707 15.102 315.527 15.094 315.383 15.094 315.242 15.141 315.117 15.23 314.988 15.32 314.879 15.418 314.789 15.523L314.676 15.668C314.66 15.676 314.59 15.676 314.461 15.676ZM314.461 15.676" fill="#7f7f7f"/>
<path d="M320.016 11.293C319.988 11.293 319.926 11.277 319.832 11.25 319.738 11.223 319.688 11.195 319.684 11.168 319.684 11.137 319.809 10.605 320.055 9.574 320.305 8.543 320.445 8.008 320.473 7.961 320.539 7.813 320.656 7.742 320.824 7.742 320.914 7.742 321.012 7.777 321.109 7.844 321.211 7.914 321.258 8.012 321.258 8.145 321.258 8.168 321.254 8.203 321.246 8.25 321.242 8.281 321.043 8.793 320.652 9.781 320.266 10.77 320.063 11.27 320.051 11.277 320.035 11.289 320.023 11.293 320.016 11.293ZM320.016 11.293" fill="#7f7f7f"/>
<path stroke-width=".566929" stroke-linecap="butt" stroke-linejoin="round" fill="none" stroke="#35507d" d="M256.328 25.922C269.91 25.922 279.758 18.758 283.195 15.953"/>
<path stroke-width=".566929" stroke-linecap="butt" stroke-linejoin="round" fill="none" stroke="#35507d" d="M256.328 68.441C286.918 68.441 302.887 72.648 311.539 78.676"/>
<path stroke-width=".566929" stroke-linecap="butt" stroke-linejoin="round" fill="none" stroke="#999999" d="M311.895 16.105C329.395 29.281 331.652 48.445 341.367 48.473"/>
<path transform="matrix(1,0,0,.925207,0,0)" stroke-width="1.178796" stroke-linecap="butt" stroke-linejoin="round" fill="none" stroke="#999999" d="M343.629 33.873H347.652C348.902 33.873 349.914 34.882 349.914 36.132V68.65C349.914 69.896 348.902 70.909 347.652 70.909H343.629C342.379 70.909 341.367 69.896 341.367 68.65V36.132C341.367 34.882 342.379 33.873 343.629 33.873ZM343.629 33.873"/>
<path d="M342.805 32.883H348.473V38.551H342.805Z" fill="#c44e52"/>
<path d="M342.805 41.387H348.473V47.055H342.805Z" fill="#c44e52"/>
<path d="M342.805 49.891H348.473V55.559H342.805Z" fill="#8172b3"/>
<path d="M342.805 58.395H348.473V64.063H342.805Z" fill="#8172b3"/>
<path stroke-width=".566929" stroke-linecap="butt" stroke-linejoin="round" fill="none" stroke="#91393c" d="M352.703 32.883V47.055"/>
<text fill="#91393c" xml:space="preserve" transform="matrix(0 -.9514678 1.0510078 0 0 0)" font-size="5.999997" font-family="Roboto"><tspan y="341.43544" x="-48.922719 -45.826719 -44.36872 -40.948724 -38.986726 -37.498727">slot 2</tspan></text>
<path stroke-width=".566929" stroke-linecap="butt" stroke-linejoin="round" fill="none" stroke="#5c5180" d="M352.703 49.891V64.063"/>
<text fill="#5c5180" xml:space="preserve" transform="matrix(0 -.9514678 1.0510078 0 0 0)" font-size="5.999997" font-family="Roboto"><tspan y="341.43544" x="-67.304988 -64.208988 -62.75098 -59.330984 -57.368986 -55.880987">slot 1</tspan></text>
<path stroke-width=".566929" stroke-linecap="butt" stroke-linejoin="round" fill="none" stroke="#000000" d="M360.711 48.473H393.957"/>
<path d="M393.164 46.887 397.531 48.473 393.164 50.059C393.957 49.137 393.957 47.813 393.164 46.887ZM393.164 46.887" fill-rule="evenodd"/>
<path transform="matrix(1,0,0,.993093,0,0)" d="M390.457 57.31 373.27 52.193V45.364L390.457 40.247ZM390.457 57.31" fill="#f7f7f7"/>
<path transform="matrix(1,0,0,.993093,0,0)" stroke-width=".568897" stroke-linecap="square" stroke-linejoin="round" fill="none" stroke="#000000" d="M390.457 57.31 373.27 52.193V45.364L390.457 40.247ZM390.457 57.31"/>
<path d="M387.852 47.027C387.938 47.059 387.977 47.117 387.977 47.199 387.977 47.309 387.941 47.438 387.871 47.578 387.832 47.609 387.566 47.625 387.082 47.625H386.387V47.645C386.375 47.66 386.332 47.871 386.262 48.285 386.191 48.699 386.105 49.188 386.008 49.758 385.91 50.324 385.824 50.75 385.746 51.035 385.461 52.289 384.922 53.027 384.137 53.254 384.078 53.266 383.988 53.273 383.863 53.273 383.523 53.273 383.262 53.195 383.074 53.039 382.887 52.883 382.789 52.691 382.781 52.457 382.773 52.227 382.852 52.035 383.016 51.887 383.176 51.738 383.363 51.656 383.57 51.645 383.727 51.645 383.852 51.691 383.949 51.781 384.047 51.871 384.102 51.992 384.105 52.141 384.105 52.383 383.996 52.598 383.777 52.777L383.852 52.789H383.961C384.07 52.77 384.176 52.641 384.273 52.41 384.305 52.293 384.379 51.902 384.496 51.238 384.535 51.039 384.609 50.641 384.711 50.047 384.816 49.453 384.918 48.902 385.016 48.391 385.109 47.883 385.156 47.625 385.148 47.625H384.203C384.074 47.625 383.984 47.617 383.93 47.598 383.879 47.578 383.852 47.531 383.844 47.453 383.871 47.219 383.922 47.086 384 47.047 384.027 47.031 384.242 47.027 384.652 47.027H385.258L385.266 47.008C385.383 46.238 385.5 45.734 385.617 45.496 385.734 45.25 385.895 45.051 386.098 44.895 386.297 44.742 386.473 44.645 386.621 44.605 386.773 44.566 386.918 44.543 387.063 44.539 387.492 44.539 387.793 44.617 387.969 44.781 388.145 44.941 388.234 45.133 388.242 45.352 388.242 45.582 388.16 45.777 387.996 45.934 387.836 46.086 387.656 46.164 387.461 46.164 387.305 46.164 387.176 46.121 387.07 46.027 386.969 45.938 386.914 45.816 386.914 45.66 386.914 45.59 386.926 45.523 386.945 45.457 386.965 45.395 386.988 45.336 387.023 45.285 387.055 45.23 387.086 45.191 387.109 45.156 387.137 45.125 387.16 45.098 387.188 45.07L387.227 45.031C387.195 45.031 387.16 45.027 387.121 45.023 386.793 45.023 386.633 45.313 386.633 45.895V45.961L386.621 46.309 386.563 46.641C386.523 46.871 386.504 46.992 386.496 46.996V47.027ZM387.852 47.027"/>
<path d="M385.863 43.242 387.199 41.941 387.277 42.02C388.121 42.82 388.543 43.227 388.543 43.242L388.289 43.52C388.277 43.516 388.09 43.352 387.723 43.035L387.207 42.59 386.672 43.047C386.586 43.117 386.504 43.191 386.418 43.27 386.332 43.348 386.266 43.406 386.215 43.453L386.137 43.512C386.121 43.523 386.074 43.48 385.988 43.375ZM385.863 43.242"/>
<path d="M398.961 34.301H427.309V62.644998H398.961Z"/>
<path d="M410.301 41.387C410.301 43.734 408.398 45.637 406.051 45.637 403.699 45.637 401.797 43.734 401.797 41.387 401.797 39.039 403.699 37.133 406.051 37.133 408.398 37.133 410.301 39.039 410.301 41.387ZM410.301 41.387" fill="#c44e52"/>
<path d="M424.473 59.813H414.656L419.566 51.309ZM424.473 59.813" fill="#8172b3"/>
<path d="M409.426 70.598H409.32C409.191 70.598 409.129 70.555 409.129 70.465 409.129 70.449 409.133 70.414 409.148 70.355 409.16 70.297 409.195 70.219 409.254 70.113 409.309 70.012 409.375 69.902 409.445 69.793 409.516 69.684 409.625 69.566 409.77 69.441 409.918 69.32 410.074 69.215 410.242 69.133 410.504 69.016 410.742 68.957 410.953 68.957H410.98C411.219 68.957 411.367 68.961 411.426 68.969 411.91 69.051 412.23 69.215 412.387 69.453L412.48 69.355C412.75 69.082 413.043 68.949 413.355 68.949 413.707 68.949 413.98 69.047 414.172 69.25 414.363 69.449 414.465 69.691 414.469 69.977 414.469 70.258 414.387 70.469 414.219 70.617 414.055 70.77 413.875 70.844 413.684 70.852 413.535 70.852 413.41 70.805 413.309 70.715 413.207 70.625 413.152 70.504 413.152 70.348 413.152 70.121 413.238 69.93 413.402 69.773 413.488 69.707 413.59 69.652 413.711 69.598 413.711 69.594 413.699 69.578 413.672 69.559 413.648 69.539 413.602 69.52 413.539 69.492 413.473 69.465 413.402 69.453 413.328 69.453 413.25 69.453 413.191 69.461 413.152 69.473 412.941 69.57 412.793 69.754 412.703 70.027 412.313 71.484 412.117 72.328 412.117 72.563 412.117 72.793 412.281 72.91 412.605 72.91 412.887 72.91 413.145 72.813 413.375 72.621 413.605 72.426 413.766 72.207 413.855 71.961 413.883 71.867 413.902 71.813 413.922 71.793 413.941 71.773 414.008 71.766 414.113 71.766H414.277C414.406 71.766 414.469 71.809 414.469 71.902 414.469 71.984 414.43 72.105 414.344 72.262 414.262 72.414 414.148 72.582 414 72.758 413.852 72.93 413.645 73.086 413.375 73.223 413.105 73.359 412.824 73.422 412.527 73.418 411.992 73.418 411.57 73.277 411.27 73L411.195 72.91C410.918 73.242 410.605 73.406 410.262 73.406H410.215C409.848 73.406 409.574 73.305 409.395 73.098 409.219 72.891 409.129 72.664 409.129 72.414 409.129 72.105 409.215 71.879 409.387 71.734 409.559 71.594 409.734 71.52 409.914 71.512 410.063 71.512 410.188 71.559 410.289 71.648 410.395 71.738 410.445 71.863 410.445 72.02 410.445 72.246 410.359 72.434 410.195 72.59 410.109 72.656 410.008 72.715 409.887 72.766 409.898 72.797 409.945 72.832 410.02 72.863 410.098 72.895 410.18 72.914 410.262 72.922 410.402 72.922 410.527 72.863 410.637 72.746 410.746 72.629 410.828 72.492 410.887 72.34 411.277 70.883 411.473 70.035 411.473 69.801 411.473 69.57 411.309 69.453 410.98 69.453 410.75 69.453 410.52 69.527 410.289 69.676 410.059 69.824 409.879 70.066 409.742 70.406 409.719 70.496 409.695 70.551 409.676 70.57 409.656 70.59 409.594 70.598 409.484 70.598ZM409.426 70.598"/>
<path d="M415.902 69.031C415.875 69.031 415.813 69.016 415.719 68.988 415.621 68.961 415.574 68.934 415.566 68.906 415.566 68.875 415.691 68.344 415.941 67.313 416.191 66.285 416.328 65.746 416.355 65.699 416.426 65.555 416.543 65.48 416.711 65.48 416.801 65.48 416.895 65.516 416.996 65.582 417.094 65.652 417.145 65.754 417.145 65.887 417.145 65.91 417.141 65.941 417.129 65.988 417.125 66.02 416.93 66.531 416.539 67.52 416.148 68.508 415.949 69.008 415.934 69.016 415.922 69.027 415.91 69.031 415.902 69.031ZM415.902 69.031"/>
</g>
</svg>
